<svg width="150" height="150" viewBox="0 0 150 150" fill="none" xmlns="http://www.w3.org/2000/svg">
<path d="M150 75C150 116.421 116.421 150 75 150C33.5786 150 0 116.421 0 75C0 33.5786 33.5786 0 75 0C116.421 0 150 33.5786 150 75Z" fill="#84ADBA"/>
<g opacity="0.3">
<path d="M104.987 108.2H109.61V115H104.987V108.2Z" fill="url(#paint0_radial_116_105)"/>
<path d="M79.0984 115H74.4754V108.2H79.0984V115Z" fill="url(#paint1_radial_116_105)"/>
<path d="M79.0984 108.2H104.987V115H79.0984V108.2Z" fill="url(#paint2_linear_116_105)"/>
</g>
<g opacity="0.3">
<path d="M61.8966 108.2H66.5779V115H61.8966V108.2Z" fill="url(#paint3_radial_116_105)"/>
<path d="M35.6813 115H31V108.2H35.6813V115Z" fill="url(#paint4_radial_116_105)"/>
<path d="M35.6813 108.2H61.8966V115H35.6813V108.2Z" fill="url(#paint5_linear_116_105)"/>
</g>
<path d="M73.6393 13C66.7131 13 61.0983 18.7084 61.0983 25.75C61.1029 30.3156 63.5082 34.5303 67.4048 36.8H39.3606C37.5079 36.8 36.0164 38.3164 36.0164 40.2V65.3115C38.2489 61.3501 42.3945 58.9046 46.8852 58.9C53.8114 58.9 59.4262 64.6084 59.4262 71.65C59.4262 78.6916 53.8114 84.4 46.8852 84.4C42.3924 84.3934 38.2464 81.9438 36.0164 77.9785V108.2C36.0164 110.084 37.5079 111.6 39.3606 111.6H67.4048C63.5082 109.33 61.1029 105.116 61.0983 100.55C61.0983 93.5084 66.7131 87.8 73.6393 87.8C80.5655 87.8 86.1803 93.5084 86.1803 100.55C86.1738 105.118 83.7644 109.333 79.8641 111.6H106.246C108.099 111.6 109.59 110.084 109.59 108.2V77.9785C111.82 81.9438 115.966 84.3934 120.459 84.4C127.385 84.4 133 78.6916 133 71.65C133 64.6084 127.385 58.9 120.459 58.9C115.968 58.9046 111.823 61.3501 109.59 65.3115V40.2C109.59 38.3164 108.099 36.8 106.246 36.8H79.8641C83.7644 34.5328 86.1738 30.3177 86.1803 25.75C86.1803 18.7084 80.5655 13 73.6393 13Z" fill="url(#paint6_radial_116_105)" stroke="#0F5A00" stroke-opacity="0.498039" stroke-width="1.02175" stroke-linejoin="round"/>
<path d="M66.1148 38.5H36.0164C35.0901 38.5 34.3443 39.2582 34.3443 40.2V60.6531C36.91 58.4296 40.1696 57.2057 43.541 57.2C51.3907 57.2 57.7542 63.6695 57.7542 71.65C57.7542 79.6305 51.3907 86.1 43.541 86.1C40.1721 86.0999 36.9128 84.8831 34.3443 82.6668V108.2C34.3443 109.142 35.0901 109.9 36.0164 109.9H59.4785C57.2915 107.292 56.0876 103.978 56.082 100.55C56.082 92.5695 62.4455 86.1 70.2951 86.1C78.1448 86.1 84.5083 92.5695 84.5083 100.55C84.5081 103.975 83.3114 107.289 81.1313 109.9H102.902C103.828 109.9 104.574 109.142 104.574 108.2V75.9H107.082H107.085C108.773 80.0166 112.728 82.6986 117.115 82.7C123.118 82.7 127.984 77.7528 127.984 71.65C127.984 65.5473 123.118 60.6 117.115 60.6C112.73 60.6046 108.777 63.2876 107.092 67.4033C107.088 67.4033 107.086 67.4 107.082 67.4H104.574V40.2C104.574 39.2582 103.828 38.5 102.902 38.5H74.4755L74.3944 34.8748L66.1148 34.9938V38.5Z" stroke="url(#paint7_linear_116_105)" stroke-opacity="0.498039" stroke-width="1.02175" stroke-linejoin="round"/>
<path opacity="0.6" d="M66.965 36.0509C66.3443 36.0509 64.5766 35.5632 62.6097 33.5635C60.6428 31.5639 59.4263 28.8014 59.4263 25.75C59.4263 19.6473 64.2924 14.7 70.2951 14.7C76.2978 14.7 81.164 19.6473 81.164 25.75C81.164 28.8014 79.9475 31.5639 77.9806 33.5635C76.0137 35.5632 74.1207 35.9443 73.5817 35.9443" stroke="url(#paint8_linear_116_105)" stroke-width="1.02175"/>
<path opacity="0.3" d="M107.092 67.4033C107.297 66.6252 107.567 65.8361 109.534 63.8365C111.501 61.8368 114.218 60.6 117.219 60.6C123.222 60.6 128.088 65.5473 128.088 71.65C128.088 77.7527 123.222 82.7 117.219 82.7C114.218 82.7 111.501 81.4632 109.534 79.4635C107.567 77.4639 107.286 76.6602 107.085 75.9" stroke="url(#paint9_linear_116_105)" stroke-width="1.02175"/>
<path opacity="0.2" d="M34.4487 82.4734C40.5798 87.3181 48.7487 88.2734 56.1865 78.2234" stroke="white" stroke-width="1.02175" stroke-linecap="round"/>
<defs>
<radialGradient id="paint0_radial_116_105" cx="0" cy="0" r="1" gradientUnits="userSpaceOnUse" gradientTransform="translate(104.981 111.6) scale(4.63176 3.4)">
<stop/>
<stop offset="1" stop-opacity="0"/>
</radialGradient>
<radialGradient id="paint1_radial_116_105" cx="0" cy="0" r="1" gradientUnits="userSpaceOnUse" gradientTransform="translate(79.1049 111.6) rotate(180) scale(4.63176 3.4)">
<stop/>
<stop offset="1" stop-opacity="0"/>
</radialGradient>
<linearGradient id="paint2_linear_116_105" x1="93.0212" y1="115.027" x2="93.0212" y2="108.199" gradientUnits="userSpaceOnUse">
<stop stop-opacity="0"/>
<stop offset="0.5"/>
<stop offset="1" stop-opacity="0"/>
</linearGradient>
<radialGradient id="paint3_radial_116_105" cx="0" cy="0" r="1" gradientUnits="userSpaceOnUse" gradientTransform="translate(61.89 111.6) scale(4.69016 3.4)">
<stop/>
<stop offset="1" stop-opacity="0"/>
</radialGradient>
<radialGradient id="paint4_radial_116_105" cx="0" cy="0" r="1" gradientUnits="userSpaceOnUse" gradientTransform="translate(35.6878 111.6) rotate(180) scale(4.69016 3.4)">
<stop/>
<stop offset="1" stop-opacity="0"/>
</radialGradient>
<linearGradient id="paint5_linear_116_105" x1="49.7796" y1="115.027" x2="49.7796" y2="108.199" gradientUnits="userSpaceOnUse">
<stop stop-opacity="0"/>
<stop offset="0.5"/>
<stop offset="1" stop-opacity="0"/>
</linearGradient>
<radialGradient id="paint6_radial_116_105" cx="0" cy="0" r="1" gradientUnits="userSpaceOnUse" gradientTransform="translate(45.2131 22.35) rotate(180) scale(167.213 161.5)">
<stop stop-color="#CDF87E"/>
<stop offset="0.26238" stop-color="#A2E34F"/>
<stop offset="0.66094" stop-color="#68B723"/>
<stop offset="1" stop-color="#1D7E0D"/>
</radialGradient>
<linearGradient id="paint7_linear_116_105" x1="71.9673" y1="34.25" x2="71.9673" y2="112.45" gradientUnits="userSpaceOnUse">
<stop stop-color="white" stop-opacity="0"/>
<stop offset="0.0222222" stop-color="white" stop-opacity="0"/>
<stop offset="0.0666667" stop-color="white" stop-opacity="0.929412"/>
<stop offset="0.120833" stop-color="white" stop-opacity="0.294118"/>
<stop offset="0.934783" stop-color="white" stop-opacity="0.169935"/>
<stop offset="1" stop-color="white"/>
</linearGradient>
<linearGradient id="paint8_linear_116_105" x1="78.4468" y1="17.4625" x2="78.4468" y2="39.5625" gradientUnits="userSpaceOnUse">
<stop stop-color="white"/>
<stop offset="0.4" stop-color="white" stop-opacity="0.235294"/>
<stop offset="0.8" stop-color="white" stop-opacity="0.156863"/>
<stop offset="1" stop-color="white" stop-opacity="0.392157"/>
</linearGradient>
<linearGradient id="paint9_linear_116_105" x1="125.371" y1="61.025" x2="125.371" y2="85.4625" gradientUnits="userSpaceOnUse">
<stop stop-color="white"/>
<stop offset="0.286957" stop-color="white" stop-opacity="0.045752"/>
<stop offset="1" stop-color="white" stop-opacity="0"/>
</linearGradient>
</defs>
</svg>
