<svg width="190" height="190" viewBox="0 0 190 190" fill="none" xmlns="http://www.w3.org/2000/svg">
<circle cx="95" cy="95" r="95" fill="#F2FDFF"/>
<path d="M50.92 128.16C49.5067 128.16 48.1467 127.947 46.84 127.52C45.56 127.12 44.52 126.44 43.72 125.48C42.92 124.52 42.52 123.227 42.52 121.6C42.52 119.867 42.8533 118.173 43.52 116.52C44.1867 114.867 45.08 113.333 46.2 111.92C47.32 110.48 48.5733 109.24 49.96 108.2C51.1867 107.267 52.6 106.507 54.2 105.92C55.8267 105.333 57.44 105.04 59.04 105.04C59.7067 105.04 60.3333 105.093 60.92 105.2C61.5067 105.28 62.1067 105.467 62.72 105.76C63.2533 106 63.68 106.307 64 106.68C64.32 107.027 64.48 107.427 64.48 107.88C64.48 107.933 64.48 108 64.48 108.08C64.48 108.16 64.4667 108.227 64.44 108.28C64.3333 108.707 64.08 109.2 63.68 109.76C63.3067 110.293 63.0133 110.853 62.8 111.44C62.7733 111.547 62.6267 111.64 62.36 111.72C62.0933 111.773 61.9867 111.747 62.04 111.64C62.2533 111.293 62.4133 110.867 62.52 110.36C62.6533 109.853 62.72 109.347 62.72 108.84C62.72 108.467 62.68 108.12 62.6 107.8C62.5467 107.453 62.44 107.16 62.28 106.92C62.0133 106.44 61.6 106.107 61.04 105.92C60.48 105.733 59.88 105.64 59.24 105.64C58.6267 105.64 58.0133 105.707 57.4 105.84C56.7867 105.973 56.2533 106.12 55.8 106.28C54.2533 106.84 52.7733 107.72 51.36 108.92C50.1067 110.013 48.9867 111.28 48 112.72C47.04 114.16 46.28 115.64 45.72 117.16C45.16 118.68 44.88 120.133 44.88 121.52C44.88 122.933 45.1867 124.053 45.8 124.88C46.4133 125.707 47.2133 126.293 48.2 126.64C49.1867 126.987 50.2533 127.16 51.4 127.16C52.4133 127.16 53.4133 127.053 54.4 126.84C55.4133 126.627 56.3333 126.36 57.16 126.04C58.5733 125.507 59.84 124.853 60.96 124.08C62.1067 123.307 63.1733 122.307 64.16 121.08C64.2933 120.947 64.3867 120.88 64.44 120.88C64.52 120.88 64.56 120.933 64.56 121.04C64.56 121.253 64.4533 121.507 64.24 121.8C63.3333 123.027 62.3067 124.053 61.16 124.88C60.0133 125.707 58.7867 126.387 57.48 126.92C56.6 127.267 55.5733 127.56 54.4 127.8C53.2533 128.04 52.0933 128.16 50.92 128.16ZM66.0938 127.08C65.2938 127.08 64.7471 126.893 64.4538 126.52C64.1604 126.12 64.0138 125.64 64.0138 125.08C64.0138 124.333 64.1738 123.533 64.4938 122.68C64.8404 121.827 65.1204 121.16 65.3338 120.68C64.9871 121.053 64.6538 121.413 64.3338 121.76C64.0138 122.107 63.7871 122.36 63.6538 122.52C63.5738 122.627 63.5071 122.68 63.4538 122.68C63.4004 122.68 63.3738 122.613 63.3738 122.48C63.3738 122.267 63.4404 122.067 63.5738 121.88C63.9471 121.4 64.3738 120.893 64.8538 120.36C65.3338 119.827 65.8004 119.267 66.2538 118.68C66.7871 117.693 67.3738 116.547 68.0138 115.24C68.6804 113.907 69.3604 112.547 70.0538 111.16C70.7738 109.747 71.4671 108.453 72.1338 107.28C72.8271 106.08 73.4404 105.12 73.9738 104.4C74.4271 104.213 74.8538 103.973 75.2538 103.68C75.6804 103.387 76.0938 103.12 76.4938 102.88C76.9204 102.613 77.3604 102.48 77.8138 102.48C78.1071 102.48 78.3204 102.56 78.4538 102.72C78.6138 102.88 78.7204 103.067 78.7738 103.28C78.8004 103.36 78.8138 103.507 78.8138 103.72C78.8138 104.333 78.6004 105.08 78.1738 105.96C77.7738 106.84 77.2938 107.707 76.7338 108.56C76.2004 109.387 75.7338 110.067 75.3338 110.6C74.2671 112.093 73.1738 113.453 72.0538 114.68C70.9338 115.88 69.9204 116.893 69.0138 117.72C68.1338 118.52 67.4938 119.107 67.0938 119.48C66.9071 119.827 66.6804 120.293 66.4138 120.88C66.1738 121.44 65.9604 122.04 65.7738 122.68C65.5871 123.293 65.4938 123.867 65.4938 124.4C65.4938 124.853 65.6004 125.24 65.8138 125.56C66.0271 125.853 66.3871 126 66.8938 126C66.9738 126 67.0538 126 67.1338 126C67.2138 126 67.3071 125.987 67.4138 125.96C67.8671 125.88 68.3604 125.627 68.8938 125.2C69.4271 124.773 69.9604 124.28 70.4938 123.72C71.0271 123.16 71.5071 122.627 71.9338 122.12C72.1204 121.907 72.2938 121.707 72.4538 121.52C72.6138 121.307 72.7204 121.16 72.7738 121.08C72.9604 121.267 72.9471 121.507 72.7338 121.8C72.5471 122.067 72.3871 122.293 72.2538 122.48C72.0671 122.72 71.8004 123.053 71.4538 123.48C71.1071 123.88 70.7071 124.32 70.2538 124.8C69.7471 125.307 69.1204 125.813 68.3738 126.32C67.6271 126.827 66.8671 127.08 66.0938 127.08ZM67.7738 117.88C68.6004 117.187 69.6404 116.2 70.8938 114.92C72.1738 113.613 73.4271 112.04 74.6538 110.2C74.7871 109.987 75.0004 109.627 75.2938 109.12C75.6138 108.613 75.9338 108.04 76.2538 107.4C76.6004 106.733 76.8938 106.093 77.1338 105.48C77.3738 104.84 77.4938 104.293 77.4938 103.84C77.4938 103.413 77.3738 103.2 77.1338 103.2C76.8404 103.2 76.4538 103.453 75.9738 103.96C75.4138 104.547 74.7738 105.413 74.0538 106.56C73.3604 107.68 72.6271 108.933 71.8538 110.32C71.0804 111.707 70.3338 113.067 69.6138 114.4C68.9204 115.733 68.3071 116.893 67.7738 117.88ZM80.3284 111.72C79.9551 111.72 79.6884 111.6 79.5284 111.36C79.4218 111.227 79.3684 111.053 79.3684 110.84C79.3684 110.413 79.5684 110.067 79.9684 109.8C80.2618 109.64 80.5284 109.56 80.7684 109.56C81.1684 109.56 81.4484 109.68 81.6084 109.92C81.7151 110.053 81.7684 110.227 81.7684 110.44C81.7684 110.867 81.5551 111.213 81.1284 111.48C80.8884 111.64 80.6218 111.72 80.3284 111.72ZM73.3684 127.12C73.1018 127.12 72.8751 127.067 72.6884 126.96C72.5284 126.853 72.4484 126.653 72.4484 126.36C72.4484 125.987 72.5418 125.547 72.7284 125.04C72.9418 124.533 73.1684 124.027 73.4084 123.52C73.6751 123.013 73.8751 122.6 74.0084 122.28C74.1951 121.907 74.4218 121.427 74.6884 120.84C74.9818 120.227 75.2484 119.653 75.4884 119.12C75.7551 118.56 75.9418 118.173 76.0484 117.96C75.6751 118.36 75.2218 118.867 74.6884 119.48C74.1818 120.067 73.7018 120.64 73.2484 121.2C72.7951 121.76 72.4484 122.2 72.2084 122.52C72.1284 122.627 72.0618 122.68 72.0084 122.68C71.9551 122.68 71.9284 122.613 71.9284 122.48C71.9284 122.267 71.9951 122.067 72.1284 121.88C72.6351 121.24 73.1951 120.52 73.8084 119.72C74.4484 118.92 75.0218 118.187 75.5284 117.52C76.0351 116.827 76.3551 116.373 76.4884 116.16C76.7818 116.107 77.2084 116.027 77.7684 115.92C78.3551 115.813 78.7551 115.667 78.9684 115.48C79.0484 115.4 79.1284 115.36 79.2084 115.36C79.2618 115.36 79.2884 115.413 79.2884 115.52C79.3151 115.6 79.2884 115.693 79.2084 115.8C79.0484 115.987 78.7684 116.44 78.3684 117.16C77.9684 117.88 77.5418 118.68 77.0884 119.56C76.6618 120.413 76.2618 121.187 75.8884 121.88C75.5151 122.6 75.1951 123.293 74.9284 123.96C74.6618 124.627 74.5284 125.107 74.5284 125.4C74.5284 125.773 74.7151 125.96 75.0884 125.96C75.4351 125.96 75.8751 125.747 76.4084 125.32C76.9684 124.893 77.5284 124.387 78.0884 123.8C78.6484 123.187 79.1418 122.627 79.5684 122.12C79.7018 121.96 79.8618 121.773 80.0484 121.56C80.2618 121.32 80.3951 121.173 80.4484 121.12C80.5018 121.173 80.5284 121.267 80.5284 121.4C80.5018 121.587 80.4351 121.773 80.3284 121.96C80.2218 122.12 80.1151 122.267 80.0084 122.4C79.4484 123.093 78.8351 123.813 78.1684 124.56C77.5018 125.28 76.7684 125.893 75.9684 126.4C75.1684 126.88 74.3018 127.12 73.3684 127.12ZM70.4237 136.04C69.3837 136.04 68.5171 135.867 67.8237 135.52C67.1037 135.2 66.6237 134.707 66.3837 134.04C66.3571 133.96 66.3437 133.88 66.3437 133.8C66.3171 133.72 66.3037 133.627 66.3037 133.52C66.3037 133.12 66.3971 132.667 66.5838 132.16C66.7704 131.68 66.9704 131.16 67.1837 130.6C67.2637 130.44 67.3571 130.36 67.4637 130.36C67.6504 130.36 67.7037 130.493 67.6237 130.76C67.4371 131.16 67.3437 131.587 67.3437 132.04C67.3437 132.973 67.7571 133.72 68.5837 134.28C69.3837 134.867 70.3037 135.16 71.3437 135.16C72.1437 135.16 72.9171 134.973 73.6637 134.6C74.9171 133.96 75.9437 133.08 76.7437 131.96C77.5437 130.84 78.2504 129.707 78.8638 128.56C79.7971 126.773 80.5971 124.907 81.2638 122.96C81.9571 120.987 82.6904 119.04 83.4638 117.12H82.5438C82.4104 117.12 82.2638 117.133 82.1038 117.16C81.9438 117.187 81.7971 117.213 81.6638 117.24L81.5838 117.2C81.6371 116.907 81.8904 116.653 82.3438 116.44C82.8238 116.2 83.1971 116.08 83.4638 116.08H83.9438C84.3438 115.12 84.8104 114.067 85.3438 112.92C85.9038 111.773 86.5038 110.627 87.1438 109.48C87.7838 108.307 88.4771 107.24 89.2238 106.28C89.9971 105.32 90.7971 104.56 91.6238 104C92.9838 103.04 94.4904 102.56 96.1438 102.56C96.4638 102.56 96.7704 102.667 97.0638 102.88C97.3838 103.067 97.5304 103.36 97.5038 103.76L97.3838 105.2C97.3838 105.253 97.3438 105.293 97.2638 105.32C97.1838 105.347 97.1304 105.333 97.1038 105.28C96.9971 104.747 96.7038 104.36 96.2238 104.12C95.7704 103.853 95.2371 103.72 94.6238 103.72C93.6371 103.72 92.7304 104.04 91.9038 104.68C91.1038 105.32 90.2371 106.507 89.3038 108.24C88.9571 108.907 88.5704 109.693 88.1438 110.6C87.7438 111.507 87.3438 112.44 86.9438 113.4C86.5438 114.36 86.1571 115.253 85.7838 116.08H88.6638C88.8504 116.08 89.0371 116.08 89.2238 116.08C89.4371 116.053 89.6371 116.027 89.8238 116C89.8238 116.107 89.7438 116.213 89.5838 116.32C89.4504 116.4 89.3304 116.467 89.2238 116.52C88.5571 116.867 87.9304 117.067 87.3438 117.12C86.7571 117.147 86.0904 117.147 85.3438 117.12C84.7571 118.587 84.1971 119.987 83.6638 121.32C83.1571 122.627 82.5971 123.907 81.9838 125.16C81.4771 126.28 80.8504 127.467 80.1038 128.72C79.3571 129.973 78.5038 131.16 77.5437 132.28C76.5837 133.4 75.5171 134.307 74.3437 135C73.1437 135.693 71.8371 136.04 70.4237 136.04ZM102.287 128.16C100.874 128.16 99.5139 127.947 98.2072 127.52C96.9272 127.12 95.8872 126.44 95.0872 125.48C94.2872 124.52 93.8872 123.227 93.8872 121.6C93.8872 119.867 94.2205 118.173 94.8872 116.52C95.5539 114.867 96.4472 113.333 97.5672 111.92C98.6872 110.48 99.9405 109.24 101.327 108.2C102.554 107.267 103.967 106.507 105.567 105.92C107.194 105.333 108.807 105.04 110.407 105.04C111.074 105.04 111.701 105.093 112.287 105.2C112.874 105.28 113.474 105.467 114.087 105.76C114.621 106 115.047 106.307 115.367 106.68C115.687 107.027 115.847 107.427 115.847 107.88C115.847 107.933 115.847 108 115.847 108.08C115.847 108.16 115.834 108.227 115.807 108.28C115.701 108.707 115.447 109.2 115.047 109.76C114.674 110.293 114.381 110.853 114.167 111.44C114.141 111.547 113.994 111.64 113.727 111.72C113.461 111.773 113.354 111.747 113.407 111.64C113.621 111.293 113.781 110.867 113.887 110.36C114.021 109.853 114.087 109.347 114.087 108.84C114.087 108.467 114.047 108.12 113.967 107.8C113.914 107.453 113.807 107.16 113.647 106.92C113.381 106.44 112.967 106.107 112.407 105.92C111.847 105.733 111.247 105.64 110.607 105.64C109.994 105.64 109.381 105.707 108.767 105.84C108.154 105.973 107.621 106.12 107.167 106.28C105.621 106.84 104.141 107.72 102.727 108.92C101.474 110.013 100.354 111.28 99.3672 112.72C98.4072 114.16 97.6472 115.64 97.0872 117.16C96.5272 118.68 96.2472 120.133 96.2472 121.52C96.2472 122.933 96.5539 124.053 97.1672 124.88C97.7805 125.707 98.5805 126.293 99.5672 126.64C100.554 126.987 101.621 127.16 102.767 127.16C103.781 127.16 104.781 127.053 105.767 126.84C106.781 126.627 107.701 126.36 108.527 126.04C109.941 125.507 111.207 124.853 112.327 124.08C113.474 123.307 114.541 122.307 115.527 121.08C115.661 120.947 115.754 120.88 115.807 120.88C115.887 120.88 115.927 120.933 115.927 121.04C115.927 121.253 115.821 121.507 115.607 121.8C114.701 123.027 113.674 124.053 112.527 124.88C111.381 125.707 110.154 126.387 108.847 126.92C107.967 127.267 106.941 127.56 105.767 127.8C104.621 128.04 103.461 128.16 102.287 128.16ZM115.461 127.08C115.034 127.08 114.648 127 114.301 126.84C113.981 126.653 113.821 126.267 113.821 125.68C113.821 124.747 114.061 123.813 114.541 122.88C115.021 121.92 115.514 121.08 116.021 120.36C116.474 119.747 116.981 119.173 117.541 118.64C118.128 118.08 118.754 117.6 119.421 117.2C119.848 116.933 120.421 116.653 121.141 116.36C121.888 116.04 122.514 115.88 123.021 115.88C123.448 115.88 123.821 116 124.141 116.24C124.461 116.453 124.621 116.853 124.621 117.44C124.621 118.347 124.381 119.28 123.901 120.24C123.448 121.173 122.968 122 122.461 122.72C122.221 123.04 121.981 123.347 121.741 123.64C121.501 123.907 121.234 124.187 120.941 124.48C121.928 124.48 122.834 124.2 123.661 123.64C124.488 123.053 125.208 122.347 125.821 121.52L125.901 121.44C125.981 121.44 126.021 121.52 126.021 121.68C126.021 121.867 125.968 122.04 125.861 122.2C125.328 122.947 124.661 123.613 123.861 124.2C123.061 124.76 122.154 125.04 121.141 125.04C121.034 125.04 120.928 125.04 120.821 125.04C120.714 125.04 120.608 125.027 120.501 125C119.008 126.387 117.328 127.08 115.461 127.08ZM116.501 126.4C116.874 126.4 117.274 126.267 117.701 126C118.154 125.733 118.501 125.48 118.741 125.24C119.194 124.787 119.608 124.307 119.981 123.8C120.354 123.267 120.701 122.733 121.021 122.2C121.394 121.56 121.768 120.8 122.141 119.92C122.514 119.04 122.701 118.213 122.701 117.44C122.701 116.827 122.488 116.52 122.061 116.52C121.714 116.52 121.288 116.667 120.781 116.96C120.301 117.253 119.941 117.52 119.701 117.76C118.794 118.693 118.034 119.707 117.421 120.8C117.074 121.413 116.701 122.133 116.301 122.96C115.901 123.787 115.701 124.547 115.701 125.24C115.701 125.347 115.701 125.453 115.701 125.56C115.728 125.64 115.754 125.733 115.781 125.84C115.888 126.213 116.128 126.4 116.501 126.4ZM130.847 127.12C130.58 127.12 130.354 127.067 130.167 126.96C129.98 126.853 129.887 126.653 129.887 126.36C129.887 125.987 129.98 125.56 130.167 125.08C130.354 124.6 130.567 124.133 130.807 123.68C131.047 123.2 131.26 122.813 131.447 122.52C130.514 123.507 129.54 124.44 128.527 125.32C128.02 125.747 127.46 126.147 126.847 126.52C126.234 126.893 125.58 127.08 124.887 127.08C124.62 127.08 124.434 127 124.327 126.84C124.22 126.653 124.167 126.44 124.167 126.2C124.167 126.067 124.18 125.973 124.207 125.92C124.34 124.88 124.674 123.8 125.207 122.68C125.74 121.56 126.394 120.507 127.167 119.52C127.94 118.533 128.727 117.733 129.527 117.12C130.14 116.667 130.727 116.387 131.287 116.28C131.847 116.147 132.46 116.08 133.127 116.08H134.447C134.874 115.36 135.314 114.56 135.767 113.68C136.247 112.773 136.714 111.88 137.167 111C137.647 110.12 138.087 109.347 138.487 108.68C139.58 106.813 140.78 105.32 142.087 104.2C143.42 103.08 144.9 102.52 146.527 102.52C146.874 102.52 147.194 102.627 147.487 102.84C147.78 103.027 147.914 103.32 147.887 103.72L147.807 105.16C147.807 105.187 147.78 105.227 147.727 105.28C147.674 105.307 147.634 105.32 147.607 105.32C147.58 105.32 147.54 105.293 147.487 105.24C147.407 104.76 147.167 104.4 146.767 104.16C146.367 103.893 145.874 103.76 145.287 103.76C145.1 103.76 144.887 103.773 144.647 103.8C144.434 103.827 144.22 103.88 144.007 103.96C143.26 104.227 142.554 104.773 141.887 105.6C141.22 106.4 140.5 107.467 139.727 108.8C139.46 109.307 139.114 109.973 138.687 110.8C138.26 111.6 137.807 112.467 137.327 113.4C136.874 114.333 136.434 115.24 136.007 116.12C135.607 117 135.26 117.747 134.967 118.36C134.834 118.68 134.607 119.173 134.287 119.84C133.967 120.48 133.62 121.187 133.247 121.96C132.9 122.707 132.594 123.4 132.327 124.04C132.087 124.68 131.967 125.133 131.967 125.4C131.967 125.773 132.127 125.96 132.447 125.96C132.767 125.96 133.194 125.773 133.727 125.4C134.26 125 134.807 124.52 135.367 123.96C135.954 123.373 136.474 122.813 136.927 122.28C137.407 121.747 137.74 121.347 137.927 121.08C138.007 121.16 138.047 121.253 138.047 121.36C138.047 121.547 137.967 121.733 137.807 121.92C137.674 122.107 137.554 122.267 137.447 122.4C136.967 123.04 136.367 123.733 135.647 124.48C134.954 125.2 134.194 125.827 133.367 126.36C132.54 126.867 131.7 127.12 130.847 127.12ZM126.527 125.72C126.847 125.72 127.287 125.493 127.847 125.04C128.434 124.56 129.06 123.973 129.727 123.28C130.394 122.56 131.02 121.813 131.607 121.04C132.194 120.24 132.674 119.52 133.047 118.88C133.447 118.213 133.647 117.707 133.647 117.36C133.647 117.067 133.554 116.867 133.367 116.76C133.207 116.653 132.994 116.6 132.727 116.6C132.3 116.6 131.834 116.76 131.327 117.08C130.847 117.373 130.46 117.667 130.167 117.96C129.847 118.253 129.46 118.72 129.007 119.36C128.58 119.973 128.154 120.653 127.727 121.4C127.3 122.147 126.94 122.867 126.647 123.56C126.354 124.253 126.207 124.813 126.207 125.24C126.207 125.56 126.314 125.72 126.527 125.72ZM139.445 127.32C138.351 127.32 137.591 127.107 137.165 126.68C136.738 126.253 136.525 125.733 136.525 125.12C136.525 124.347 136.725 123.52 137.125 122.64C137.551 121.76 137.951 121.013 138.325 120.4C138.751 119.76 139.325 119.093 140.045 118.4C140.765 117.707 141.551 117.12 142.405 116.64C143.258 116.16 144.085 115.92 144.885 115.92C145.578 115.92 146.058 116.093 146.325 116.44C146.591 116.76 146.725 117.147 146.725 117.6C146.725 118.427 146.471 119.107 145.965 119.64C145.485 120.173 144.885 120.613 144.165 120.96C143.445 121.28 142.751 121.547 142.085 121.76C141.685 121.867 141.218 121.973 140.685 122.08C140.151 122.187 139.645 122.24 139.165 122.24C138.978 122.72 138.831 123.187 138.725 123.64C138.618 124.093 138.565 124.507 138.565 124.88C138.565 125.333 138.671 125.707 138.885 126C139.125 126.293 139.511 126.44 140.045 126.44C140.258 126.44 140.511 126.413 140.805 126.36C141.098 126.307 141.418 126.227 141.765 126.12C142.565 125.853 143.351 125.427 144.125 124.84C144.898 124.253 145.605 123.627 146.245 122.96C146.911 122.267 147.418 121.693 147.765 121.24C147.845 121.32 147.885 121.413 147.885 121.52C147.885 121.653 147.791 121.867 147.605 122.16C147.071 122.907 146.378 123.68 145.525 124.48C144.671 125.28 143.725 125.96 142.685 126.52C141.645 127.053 140.565 127.32 139.445 127.32ZM139.485 121.44C139.831 121.467 140.218 121.467 140.645 121.44C141.098 121.387 141.538 121.293 141.965 121.16C143.058 120.84 143.845 120.333 144.325 119.64C144.831 118.92 145.085 118.28 145.085 117.72C145.085 117.4 145.018 117.133 144.885 116.92C144.751 116.707 144.538 116.6 144.245 116.6C143.471 116.6 142.778 116.893 142.165 117.48C141.551 118.04 141.018 118.693 140.565 119.44C140.111 120.187 139.751 120.853 139.485 121.44ZM149.526 127.64C149.046 127.64 148.539 127.573 148.006 127.44C147.472 127.307 146.992 127.093 146.566 126.8C146.166 126.48 145.899 126.053 145.766 125.52C145.739 125.44 145.726 125.32 145.726 125.16C145.726 124.787 145.806 124.373 145.966 123.92C146.152 123.467 146.379 123.147 146.646 122.96C146.752 122.907 146.832 122.907 146.886 122.96C146.966 123.013 146.979 123.067 146.926 123.12C146.899 123.2 146.859 123.307 146.806 123.44C146.752 123.547 146.712 123.667 146.686 123.8C146.606 124.493 146.752 125.107 147.126 125.64C147.286 125.853 147.472 126.053 147.686 126.24C147.926 126.427 148.152 126.587 148.366 126.72C148.552 126.827 148.779 126.907 149.046 126.96C149.312 126.987 149.579 127 149.846 127C150.272 127 150.686 126.947 151.086 126.84C151.486 126.733 151.779 126.56 151.966 126.32C152.312 125.893 152.486 125.413 152.486 124.88C152.486 124.48 152.379 124.053 152.166 123.6C151.952 123.147 151.619 122.667 151.166 122.16C150.872 121.84 150.592 121.493 150.326 121.12C150.059 120.747 149.886 120.347 149.806 119.92C149.779 119.84 149.752 119.76 149.726 119.68C149.726 119.6 149.726 119.52 149.726 119.44C149.379 119.947 149.019 120.427 148.646 120.88C148.299 121.307 147.992 121.68 147.726 122C147.619 122.16 147.526 122.24 147.446 122.24C147.392 122.24 147.366 122.187 147.366 122.08C147.366 121.84 147.472 121.587 147.686 121.32C147.899 121.08 148.139 120.787 148.406 120.44C148.672 120.067 148.886 119.773 149.046 119.56C149.499 118.893 149.832 118.373 150.046 118C150.286 117.6 150.539 117.24 150.806 116.92C151.099 116.573 151.459 116.293 151.886 116.08C152.339 115.867 152.806 115.76 153.286 115.76C153.846 115.76 154.352 115.853 154.806 116.04C155.286 116.2 155.539 116.627 155.566 117.32C155.566 117.64 155.499 117.973 155.366 118.32C155.259 118.64 155.139 118.947 155.006 119.24C154.926 119.4 154.806 119.52 154.646 119.6C154.512 119.653 154.446 119.627 154.446 119.52C154.446 119.413 154.459 119.293 154.486 119.16C154.512 119.027 154.526 118.907 154.526 118.8C154.526 118.347 154.446 117.947 154.286 117.6C154.152 117.227 153.952 116.96 153.686 116.8C153.419 116.613 153.139 116.52 152.846 116.52C152.419 116.52 152.006 116.693 151.606 117.04C151.206 117.36 151.006 117.787 151.006 118.32C151.006 118.373 151.006 118.44 151.006 118.52C151.006 118.6 151.019 118.667 151.046 118.72C151.152 119.147 151.472 119.627 152.006 120.16C152.539 120.693 152.952 121.16 153.246 121.56C153.752 122.253 154.006 122.96 154.006 123.68C154.006 124.4 153.792 125.067 153.366 125.68C152.966 126.267 152.419 126.733 151.726 127.08C151.059 127.453 150.326 127.64 149.526 127.64Z" fill="#16C7FF"/>
<path d="M103.597 67.0295H116.78V79.6634H103.597V67.0295Z" fill="#093F68"/>
<path d="M116.784 80.0923H103.597C103.493 80.0923 103.393 80.0471 103.32 79.9667C103.246 79.8863 103.205 79.7772 103.205 79.6634V67.0295C103.205 66.9157 103.246 66.8067 103.32 66.7262C103.393 66.6458 103.493 66.6006 103.597 66.6006H116.784C116.888 66.6006 116.988 66.6458 117.061 66.7262C117.135 66.8067 117.176 66.9157 117.176 67.0295V79.6634C117.176 79.7772 117.135 79.8863 117.061 79.9667C116.988 80.0471 116.888 80.0923 116.784 80.0923ZM103.989 79.2346H116.392V67.4583H103.989V79.2346Z" fill="#093F68"/>
<path d="M100.25 77.3005H119.614V79.9293H100.25V77.3005Z" fill="white"/>
<path d="M119.61 80.3539H100.25C100.146 80.3539 100.046 80.3087 99.9729 80.2283C99.8994 80.1479 99.8581 80.0388 99.8581 79.925V77.3005C99.8581 77.1867 99.8994 77.0777 99.9729 76.9972C100.046 76.9168 100.146 76.8716 100.25 76.8716H119.61C119.714 76.8716 119.813 76.9168 119.887 76.9972C119.96 77.0777 120.002 77.1867 120.002 77.3005V79.925C120.002 80.0388 119.96 80.1479 119.887 80.2283C119.813 80.3087 119.714 80.3539 119.61 80.3539ZM100.642 79.4962H119.218V77.7293H100.642V79.4962Z" fill="#093F68"/>
<path d="M132.46 67.6942H88.6342C88.3258 67.701 88.0197 67.6352 87.7366 67.5013C87.4536 67.3673 87.2001 67.1683 86.9935 66.9178C86.7868 66.6673 86.6318 66.371 86.5389 66.0492C86.4461 65.7274 86.4175 65.3874 86.4552 65.0525L89.2965 33.266C89.3752 32.5512 89.686 31.8912 90.1723 31.4063C90.6586 30.9213 91.288 30.6438 91.9457 30.6243H135.764C136.073 30.6155 136.38 30.6799 136.664 30.813C136.949 30.9462 137.204 31.145 137.411 31.3959C137.619 31.6467 137.774 31.9437 137.868 32.2665C137.961 32.5892 137.989 32.9302 137.95 33.266L135.113 65.061C135.033 65.775 134.72 66.4336 134.233 66.9168C133.746 67.4001 133.117 67.676 132.46 67.6942Z" fill="#093F68"/>
<path d="M132.46 68.1231H88.6341C88.271 68.1303 87.9107 68.0521 87.5775 67.8939C87.2443 67.7358 86.946 67.5012 86.7027 67.2061C86.4594 66.911 86.2768 66.5622 86.1671 66.1833C86.0575 65.8044 86.0234 65.4042 86.0672 65.0096L88.9045 33.2146C88.9931 32.3937 89.3495 31.6354 89.9083 31.0791C90.467 30.5228 91.1905 30.206 91.9457 30.1869H135.764C136.125 30.1807 136.483 30.2585 136.815 30.4153C137.147 30.572 137.444 30.8041 137.688 31.0961C137.932 31.3927 138.115 31.7425 138.227 32.1224C138.338 32.5024 138.375 32.9038 138.334 33.3004L135.493 65.0954C135.405 65.9149 135.05 66.672 134.492 67.2281C133.935 67.7842 133.214 68.1019 132.46 68.1231ZM91.9457 31.0446C91.3848 31.0635 90.8486 31.3012 90.4339 31.7149C90.0192 32.1286 89.7534 32.691 89.6844 33.3004L86.8471 65.0954C86.8148 65.3705 86.8373 65.6501 86.9129 65.9148C86.9886 66.1796 87.1156 66.4234 87.2853 66.6294C87.455 66.8355 87.6634 66.999 87.8962 67.1088C88.129 67.2185 88.3807 67.2719 88.6341 67.2654H132.46C133.023 67.2527 133.562 67.017 133.978 66.6022C134.394 66.1873 134.658 65.6215 134.721 65.0096L137.562 33.2146C137.592 32.9373 137.567 32.6564 137.49 32.3903C137.413 32.1242 137.285 31.879 137.116 31.6707C136.944 31.4673 136.734 31.3063 136.501 31.1983C136.268 31.0904 136.017 31.038 135.764 31.0446H91.9457Z" fill="#093F68"/>
<path d="M129.885 67.6942H86.0633C85.7548 67.7009 85.4486 67.6351 85.1653 67.5012C84.8821 67.3673 84.6284 67.1684 84.4215 66.9179C84.2145 66.6675 84.0591 66.3713 83.9658 66.0495C83.8725 65.7277 83.8433 65.3877 83.8804 65.0525L86.7217 33.266C86.8005 32.5505 87.1119 31.8899 87.599 31.4049C88.0861 30.9199 88.7165 30.6428 89.3748 30.6243H133.201C133.508 30.6187 133.813 30.6854 134.096 30.8199C134.378 30.9544 134.63 31.1536 134.836 31.404C135.042 31.6544 135.196 31.9502 135.289 32.2714C135.381 32.5926 135.409 32.9318 135.372 33.266L132.53 65.061C132.45 65.7736 132.139 66.431 131.654 66.9141C131.168 67.3972 130.541 67.674 129.885 67.6942Z" fill="#68E1FD"/>
<path d="M129.885 68.1231H86.0633C85.6998 68.1309 85.3391 68.0532 85.0054 67.8953C84.6717 67.7374 84.3729 67.5029 84.1292 67.2077C83.8855 66.9126 83.7025 66.5636 83.5926 66.1844C83.4828 65.8051 83.4486 65.4045 83.4925 65.0096L86.3337 33.2146C86.4223 32.3937 86.7787 31.6353 87.3374 31.0791C87.8962 30.5228 88.6197 30.206 89.3748 30.1869H133.201C133.563 30.1803 133.923 30.2589 134.256 30.4174C134.589 30.5758 134.887 30.8105 135.129 31.1055C135.372 31.4005 135.555 31.7491 135.664 32.1277C135.773 32.5063 135.807 32.9062 135.764 33.3003L132.922 65.0954C132.834 65.9156 132.478 66.6733 131.92 67.2295C131.362 67.7857 130.64 68.1029 129.885 68.1231ZM89.3748 31.0446C88.8122 31.0573 88.2729 31.2929 87.8571 31.7078C87.4412 32.1226 87.177 32.6885 87.1136 33.3003L84.2723 65.0954C84.2433 65.3716 84.2677 65.6515 84.344 65.9167C84.4203 66.182 84.5468 66.4267 84.7152 66.6349C84.8864 66.8384 85.0951 66.9997 85.3274 67.1084C85.5598 67.2171 85.8106 67.2706 86.0633 67.2654H129.885C130.448 67.2527 130.987 67.017 131.403 66.6022C131.819 66.1873 132.083 65.6215 132.146 65.0096L134.98 33.2146C135.009 32.9377 134.985 32.6571 134.908 32.3912C134.832 32.1252 134.705 31.8798 134.537 31.6707C134.366 31.4691 134.157 31.3091 133.926 31.2012C133.694 31.0934 133.444 31.04 133.193 31.0446H89.3748Z" fill="#093F68"/>
<path d="M129.254 60.3223H88.011C87.8576 60.3254 87.7053 60.2924 87.5646 60.2255C87.4238 60.1586 87.2979 60.0593 87.1953 59.9344C87.0927 59.8095 87.0158 59.662 86.97 59.5017C86.9241 59.3415 86.9102 59.1723 86.9294 59.0057L89.0966 34.7327C89.1335 34.3754 89.2878 34.0449 89.5308 33.8028C89.7737 33.5606 90.0887 33.4232 90.4172 33.4161H131.656C131.81 33.4131 131.962 33.4461 132.103 33.513C132.244 33.5798 132.37 33.679 132.473 33.8038C132.576 33.9286 132.653 34.0761 132.7 34.2364C132.746 34.3966 132.761 34.5659 132.742 34.7327L130.571 58.9971C130.536 59.3552 130.383 59.6872 130.141 59.931C129.898 60.1748 129.583 60.3139 129.254 60.3223Z" fill="white"/>
<path d="M129.254 60.7511H88.011C87.8029 60.7538 87.5965 60.708 87.4058 60.6167C87.2151 60.5253 87.0443 60.3906 86.9049 60.2214C86.7655 60.0522 86.6606 59.8524 86.5973 59.6354C86.5339 59.4184 86.5136 59.1891 86.5375 58.9628L88.7047 34.6898C88.7512 34.2251 88.9506 33.7948 89.2658 33.4792C89.5809 33.1636 89.9902 32.9841 90.4173 32.9744H131.657C131.865 32.9703 132.072 33.0152 132.263 33.106C132.455 33.1969 132.626 33.3317 132.766 33.5012C132.905 33.6707 133.01 33.871 133.073 34.0887C133.136 34.3063 133.155 34.5362 133.13 34.7627L130.963 59.0357C130.917 59.5 130.719 59.9303 130.404 60.246C130.09 60.5617 129.681 60.7413 129.254 60.7511ZM90.4173 33.845C90.1863 33.8541 89.9657 33.9526 89.7949 34.1231C89.6241 34.2935 89.5141 34.5247 89.4846 34.7756L87.3174 59.0486C87.3055 59.1563 87.3147 59.2656 87.3444 59.3691C87.3742 59.4727 87.4237 59.5681 87.4898 59.649C87.5556 59.7283 87.6362 59.7911 87.7261 59.8333C87.816 59.8755 87.9132 59.896 88.011 59.8934H129.254C129.485 59.8842 129.705 59.7855 129.875 59.615C130.045 59.4445 130.154 59.2133 130.183 58.9628L132.35 34.6898C132.362 34.5821 132.353 34.4728 132.323 34.3693C132.293 34.2658 132.244 34.1704 132.178 34.0894C132.112 34.0102 132.031 33.9473 131.941 33.9051C131.852 33.8629 131.754 33.8424 131.657 33.845H90.4173Z" fill="#093F68"/>
<path d="M127.052 57.5347H105.991L107.551 40.0633H128.611L127.052 57.5347Z" fill="white"/>
<path d="M127.052 57.9636H105.98C105.925 57.9634 105.871 57.9508 105.821 57.9264C105.771 57.902 105.726 57.8665 105.69 57.822C105.652 57.7779 105.624 57.7257 105.607 57.6688C105.589 57.6119 105.583 57.5516 105.588 57.4918L107.155 40.0204C107.165 39.9143 107.211 39.8159 107.283 39.7446C107.355 39.6732 107.45 39.6339 107.547 39.6345H128.608C128.662 39.6341 128.716 39.6461 128.766 39.6697C128.816 39.6933 128.861 39.7281 128.898 39.7717C128.935 39.8159 128.963 39.8681 128.981 39.925C128.998 39.9819 129.005 40.0421 129 40.1019L127.432 57.5733C127.423 57.678 127.38 57.7757 127.31 57.8476C127.24 57.9196 127.148 57.9608 127.052 57.9636ZM106.422 57.1059H126.695L128.18 40.4922H107.908L106.422 57.1059Z" fill="#093F68"/>
<path d="M128.349 43.0224H107.288L107.551 40.0633H128.611L128.349 43.0224Z" fill="white"/>
<path d="M128.349 43.4512H107.288C107.233 43.4522 107.179 43.4405 107.128 43.4169C107.077 43.3933 107.032 43.3582 106.994 43.314C106.958 43.2695 106.93 43.2171 106.914 43.1602C106.897 43.1034 106.891 43.0433 106.896 42.9838L107.163 40.0204C107.173 39.9143 107.218 39.8159 107.291 39.7446C107.363 39.6732 107.457 39.6339 107.555 39.6345H128.615C128.67 39.6341 128.724 39.6461 128.774 39.6697C128.823 39.6933 128.868 39.7281 128.905 39.7717C128.943 39.8159 128.971 39.8681 128.988 39.925C129.006 39.9819 129.012 40.0421 129.007 40.1019L128.741 43.0653C128.731 43.1714 128.685 43.2698 128.613 43.3412C128.541 43.4125 128.446 43.4518 128.349 43.4512ZM107.719 42.5935H127.992L128.18 40.4922H107.908L107.719 42.5935Z" fill="#093F68"/>
<path d="M112.701 53.7222H91.64L93.1998 36.2508H114.26L112.701 53.7222Z" fill="white"/>
<path d="M112.7 54.1511H91.64C91.5853 54.151 91.5312 54.1383 91.4813 54.1139C91.4313 54.0895 91.3866 54.054 91.35 54.0096C91.3128 53.9654 91.2845 53.9132 91.267 53.8563C91.2494 53.7994 91.243 53.7391 91.2481 53.6794L92.8157 36.208C92.8254 36.1018 92.871 36.0034 92.9434 35.9321C93.0159 35.8607 93.1101 35.8215 93.2076 35.822H114.268C114.323 35.8217 114.377 35.834 114.428 35.8582C114.478 35.8824 114.523 35.9179 114.56 35.9624C114.597 36.0068 114.625 36.0593 114.642 36.1164C114.659 36.1735 114.665 36.2339 114.66 36.2937L113.092 53.7651C113.083 53.8713 113.037 53.9696 112.965 54.041C112.892 54.1124 112.798 54.1516 112.7 54.1511ZM92.0711 53.2934H112.344L113.817 36.6969H93.5564L92.0711 53.2934Z" fill="#093F68"/>
<path d="M113.998 39.2142H92.9332L93.1997 36.2508H114.26L113.998 39.2142Z" fill="white"/>
<path d="M113.998 39.6431H92.9333C92.8786 39.6429 92.8245 39.6303 92.7746 39.6059C92.7246 39.5815 92.6799 39.546 92.6433 39.5015C92.6068 39.457 92.5792 39.4046 92.5624 39.3478C92.5455 39.2909 92.5397 39.2308 92.5453 39.1713L92.8079 36.208C92.8176 36.1018 92.8632 36.0034 92.9356 35.9321C93.0081 35.8607 93.1023 35.8215 93.1997 35.822H114.26C114.315 35.8217 114.37 35.834 114.42 35.8582C114.47 35.8824 114.515 35.9179 114.552 35.9624C114.589 36.0068 114.617 36.0593 114.634 36.1164C114.652 36.1735 114.658 36.2339 114.652 36.2937L114.386 39.2571C114.376 39.3625 114.331 39.4603 114.259 39.5315C114.188 39.6028 114.095 39.6425 113.998 39.6431ZM93.3683 38.7854H113.641L113.817 36.6969H93.5564L93.3683 38.7854Z" fill="#093F68"/>
<path d="M109.048 51.445H104.78C104.726 51.4449 104.672 51.4322 104.622 51.4079C104.572 51.3835 104.527 51.3479 104.49 51.3035C104.453 51.2594 104.425 51.2071 104.407 51.1503C104.39 51.0934 104.383 51.0331 104.388 50.9733L104.631 48.2544C104.641 48.1482 104.687 48.0499 104.759 47.9785C104.832 47.9071 104.926 47.8679 105.023 47.8684H109.291C109.346 47.8686 109.4 47.8812 109.45 47.9056C109.5 47.93 109.544 47.9655 109.581 48.01C109.617 48.0545 109.645 48.1069 109.662 48.1637C109.679 48.2206 109.685 48.2807 109.679 48.3402L109.436 51.0591C109.426 51.1645 109.381 51.2623 109.31 51.3335C109.238 51.4048 109.145 51.4445 109.048 51.445ZM105.211 50.5873H108.691L108.856 48.7261H105.376L105.211 50.5873Z" fill="#DFEAEF"/>
<path d="M110.784 49.0649H106.516L106.759 46.346H111.027L110.784 49.0649Z" fill="white"/>
<path d="M110.784 49.4938H106.516C106.462 49.4936 106.408 49.481 106.358 49.4566C106.308 49.4322 106.263 49.3967 106.226 49.3522C106.19 49.3077 106.162 49.2553 106.145 49.1985C106.129 49.1416 106.123 49.0815 106.128 49.022L106.371 46.3031C106.381 46.197 106.427 46.0986 106.499 46.0272C106.572 45.9559 106.666 45.9166 106.763 45.9172H111.031C111.086 45.9173 111.14 45.93 111.19 45.9543C111.24 45.9787 111.284 46.0142 111.321 46.0587C111.358 46.1028 111.386 46.1551 111.404 46.2119C111.422 46.2688 111.428 46.3291 111.423 46.3889L111.18 49.1078C111.17 49.2147 111.124 49.3137 111.051 49.3851C110.977 49.4566 110.882 49.4954 110.784 49.4938ZM106.947 48.6361H110.428L110.596 46.7749H107.116L106.947 48.6361Z" fill="#DFEAEF"/>
<path d="M100.642 46.346H94.4617L94.9476 40.9468H101.124L100.642 46.346Z" fill="white"/>
<path d="M100.642 46.7749H94.4616C94.407 46.7747 94.3529 46.7621 94.303 46.7377C94.253 46.7133 94.2083 46.6778 94.1716 46.6333C94.1352 46.5888 94.1076 46.5364 94.0907 46.4796C94.0739 46.4227 94.0681 46.3626 94.0737 46.3031L94.5557 40.9039C94.5654 40.7977 94.611 40.6994 94.6835 40.628C94.7559 40.5566 94.8501 40.5174 94.9476 40.5179H101.124C101.178 40.5175 101.232 40.5295 101.282 40.5531C101.332 40.5768 101.377 40.6115 101.414 40.6552C101.451 40.6993 101.479 40.7515 101.497 40.8084C101.514 40.8653 101.521 40.9256 101.516 40.9854L101.034 46.3889C101.024 46.495 100.978 46.5934 100.906 46.6648C100.834 46.7361 100.739 46.7754 100.642 46.7749ZM94.8966 45.9172H100.285L100.677 41.3756H95.3003L94.8966 45.9172Z" fill="#DFEAEF"/>
<path d="M98.1023 51.2606H94.0227L94.3166 48.0056H98.3923L98.1023 51.2606Z" fill="white"/>
<path d="M98.1024 51.7066H94.0227C93.9681 51.7065 93.914 51.6938 93.8641 51.6695C93.8141 51.6451 93.7694 51.6096 93.7327 51.5651C93.6963 51.5206 93.6687 51.4682 93.6518 51.4114C93.635 51.3545 93.6292 51.2944 93.6348 51.2349L93.9248 47.9842C93.9336 47.8773 93.9787 47.7779 94.0513 47.7056C94.1239 47.6334 94.2186 47.5935 94.3167 47.594H98.3924C98.4471 47.5941 98.5011 47.6068 98.5511 47.6311C98.601 47.6555 98.6457 47.6911 98.6824 47.7355C98.7188 47.78 98.7464 47.8324 98.7633 47.8893C98.7801 47.9461 98.786 48.0062 98.7804 48.0657L98.4904 51.3207C98.4807 51.4261 98.4357 51.5239 98.364 51.5951C98.2924 51.6664 98.1992 51.7061 98.1024 51.7066ZM94.4577 50.8489H97.7497L97.9652 48.4517H94.6733L94.4577 50.8489Z" fill="#DFEAEF"/>
<path d="M124.861 46.346H116.2C116.096 46.346 115.997 46.3008 115.923 46.2204C115.85 46.14 115.808 46.0309 115.808 45.9172C115.808 45.8034 115.85 45.6943 115.923 45.6139C115.997 45.5335 116.096 45.4883 116.2 45.4883H124.861C124.965 45.4883 125.065 45.5335 125.138 45.6139C125.212 45.6943 125.253 45.8034 125.253 45.9172C125.253 46.0309 125.212 46.14 125.138 46.2204C125.065 46.3008 124.965 46.346 124.861 46.346Z" fill="#DFEAEF"/>
<path d="M121.757 49.2407H115.941C115.838 49.2407 115.738 49.1956 115.664 49.1151C115.591 49.0347 115.55 48.9256 115.55 48.8119C115.55 48.6982 115.591 48.5891 115.664 48.5086C115.738 48.4282 115.838 48.383 115.941 48.383H121.757C121.861 48.383 121.961 48.4282 122.034 48.5086C122.108 48.5891 122.149 48.6982 122.149 48.8119C122.149 48.9256 122.108 49.0347 122.034 49.1151C121.961 49.1956 121.861 49.2407 121.757 49.2407Z" fill="#DFEAEF"/>
<path d="M124.344 52.1355H115.683C115.579 52.1355 115.479 52.0903 115.406 52.0099C115.332 51.9295 115.291 51.8204 115.291 51.7067C115.291 51.5929 115.332 51.4838 115.406 51.4034C115.479 51.323 115.579 51.2778 115.683 51.2778H124.344C124.448 51.2778 124.547 51.323 124.621 51.4034C124.694 51.4838 124.736 51.5929 124.736 51.7067C124.736 51.8204 124.694 51.9295 124.621 52.0099C124.547 52.0903 124.448 52.1355 124.344 52.1355Z" fill="#DFEAEF"/>
<path d="M124.085 55.0345H120.166C120.062 55.0345 119.963 54.9893 119.889 54.9089C119.816 54.8285 119.774 54.7194 119.774 54.6057C119.774 54.4919 119.816 54.3829 119.889 54.3024C119.963 54.222 120.062 54.1768 120.166 54.1768H124.085C124.189 54.1768 124.289 54.222 124.362 54.3024C124.436 54.3829 124.477 54.4919 124.477 54.6057C124.477 54.7194 124.436 54.8285 124.362 54.9089C124.289 54.9893 124.189 55.0345 124.085 55.0345Z" fill="#DFEAEF"/>
<path d="M116.784 55.0345H115.424C115.32 55.0345 115.221 54.9893 115.147 54.9089C115.074 54.8285 115.032 54.7194 115.032 54.6057C115.032 54.4919 115.074 54.3829 115.147 54.3024C115.221 54.222 115.32 54.1768 115.424 54.1768H116.784C116.888 54.1768 116.988 54.222 117.061 54.3024C117.135 54.3829 117.176 54.4919 117.176 54.6057C117.176 54.7194 117.135 54.8285 117.061 54.9089C116.988 54.9893 116.888 55.0345 116.784 55.0345Z" fill="#DFEAEF"/>
<path d="M79.5461 79.6634H118.379V83.5746H79.5461V79.6634Z" fill="#68E1FD"/>
<path d="M118.379 83.9991H79.5461C79.4421 83.9991 79.3425 83.9539 79.269 83.8735C79.1955 83.7931 79.1542 83.684 79.1542 83.5703V79.6634C79.1542 79.5497 79.1955 79.4406 79.269 79.3602C79.3425 79.2798 79.4421 79.2346 79.5461 79.2346H118.379C118.483 79.2346 118.583 79.2798 118.656 79.3602C118.73 79.4406 118.771 79.5497 118.771 79.6634V83.5703C118.771 83.684 118.73 83.7931 118.656 83.8735C118.583 83.9539 118.483 83.9991 118.379 83.9991ZM79.938 83.1414H117.987V80.0923H79.938V83.1414Z" fill="#093F68"/>
<path d="M139.608 83.5703H118.379V79.6592H139.608V83.5703Z" fill="#68E1FD"/>
<path d="M139.608 83.9991H118.379C118.275 83.9991 118.175 83.9539 118.102 83.8735C118.028 83.7931 117.987 83.684 117.987 83.5703V79.6634C117.987 79.5497 118.028 79.4406 118.102 79.3602C118.175 79.2798 118.275 79.2346 118.379 79.2346H139.608C139.712 79.2346 139.812 79.2798 139.885 79.3602C139.959 79.4406 140 79.5497 140 79.6634V83.5703C140 83.684 139.959 83.7931 139.885 83.8735C139.812 83.9539 139.712 83.9991 139.608 83.9991ZM118.771 83.1414H139.216V80.0923H118.771V83.1414Z" fill="#093F68"/>
<path d="M82.5519 43.1296C82.5519 43.1296 84.2488 46.0372 83.4572 47.0622C82.6656 48.0871 81.0196 47.0622 81.0196 47.0622" fill="#FFC9B0"/>
<path d="M82.4657 47.9285C81.8856 47.8983 81.3197 47.7222 80.8119 47.4138C80.7671 47.3857 80.7279 47.3481 80.6964 47.3034C80.6648 47.2586 80.6417 47.2075 80.6282 47.1529C80.6148 47.0984 80.6112 47.0415 80.6179 46.9854C80.6245 46.9294 80.6412 46.8753 80.6669 46.8263C80.6927 46.7773 80.727 46.7343 80.7679 46.6999C80.8088 46.6654 80.8555 46.64 80.9053 46.6253C80.9552 46.6106 81.0072 46.6067 81.0584 46.614C81.1096 46.6212 81.159 46.6395 81.2038 46.6676C81.2038 46.6676 82.5833 47.491 83.1633 46.7663C83.5552 46.2302 82.8459 44.4033 82.2228 43.3355C82.1671 43.2394 82.1487 43.123 82.1715 43.012C82.1943 42.901 82.2564 42.8045 82.3442 42.7437C82.4321 42.6828 82.5384 42.6626 82.6398 42.6876C82.7412 42.7125 82.8295 42.7805 82.8851 42.8766C83.1947 43.4041 84.6917 46.1101 83.759 47.3195C83.6006 47.5228 83.4015 47.6834 83.1773 47.789C82.953 47.8946 82.7095 47.9423 82.4657 47.9285Z" fill="#093F68"/>
<path d="M64.411 46.955C66.1166 46.955 67.4992 45.6513 67.4992 44.0431C67.4992 42.4349 66.1166 41.1312 64.411 41.1312C62.7055 41.1312 61.3229 42.4349 61.3229 44.0431C61.3229 45.6513 62.7055 46.955 64.411 46.955Z" fill="#FFC9B0"/>
<path d="M64.411 47.3795C62.4946 47.3795 60.9349 45.8828 60.9349 44.0431C60.9349 42.2033 62.5025 40.7023 64.411 40.7023C66.3195 40.7023 67.891 42.199 67.891 44.0431C67.891 45.8871 66.3313 47.3795 64.411 47.3795ZM64.411 41.56C62.9257 41.56 61.7187 42.675 61.7187 44.0431C61.7187 45.4111 62.9257 46.5218 64.411 46.5218C65.8963 46.5218 67.1072 45.4111 67.1072 44.0431C67.1072 42.675 65.8963 41.56 64.411 41.56Z" fill="#093F68"/>
<path d="M77.6375 31.5506C80.2867 36.5253 82.0934 33.6949 82.6381 32.73V43.3312C82.6381 45.8795 81.7651 48.3352 80.1914 50.2136C78.6178 52.0921 76.4578 53.2568 74.1379 53.4778V55.6521C74.1379 56.1127 73.9707 56.5545 73.673 56.8802C73.3754 57.2059 72.9717 57.3889 72.5507 57.3889C72.1298 57.3889 71.7261 57.2059 71.4284 56.8802C71.1308 56.5545 70.9635 56.1127 70.9635 55.6521V53.615C65.3163 53.3834 62.5613 48.0657 62.5613 43.3226L64.0191 33.8879C64.0191 33.8879 67.7186 37.0571 77.6375 31.5506Z" fill="#FFC9B0"/>
<path d="M72.5507 57.8306C72.0289 57.8239 71.5305 57.5922 71.1637 57.186C70.7969 56.7798 70.5912 56.2317 70.5912 55.6606V54.0267C69.3729 53.9533 68.1835 53.5931 67.1041 52.9706C66.0246 52.3482 65.0807 51.4782 64.3366 50.4201C62.9231 48.3796 62.1616 45.8873 62.1694 43.3269C62.1674 43.3041 62.1674 43.2811 62.1694 43.2583L63.6272 33.8235C63.6387 33.7505 63.6672 33.6819 63.7101 33.6245C63.753 33.5672 63.8087 33.5229 63.8719 33.4961C63.935 33.4694 64.0035 33.4609 64.0705 33.4717C64.1375 33.4825 64.2008 33.5121 64.2543 33.5577C64.2895 33.5834 67.942 36.4395 77.4572 31.1647C77.5466 31.1148 77.6501 31.1043 77.7464 31.1354C77.8426 31.1665 77.9243 31.2369 77.9745 31.3319C78.8916 33.0473 79.7929 33.9694 80.5807 33.9779C81.1607 33.9779 81.7563 33.489 82.3011 32.5027C82.3459 32.4236 82.4129 32.3626 82.4921 32.3289C82.5713 32.2952 82.6584 32.2906 82.7403 32.3157C82.8221 32.3409 82.8942 32.3945 82.9458 32.4684C82.9973 32.5424 83.0255 32.6327 83.0261 32.7257V43.3269C83.0135 45.9108 82.1453 48.402 80.5822 50.3388C79.0192 52.2755 76.8674 53.5264 74.5259 53.8595V55.6478C74.5274 55.9331 74.4775 56.216 74.379 56.4802C74.2806 56.7444 74.1355 56.9847 73.952 57.1875C73.7685 57.3902 73.5503 57.5514 73.3099 57.6618C73.0694 57.7721 72.8114 57.8295 72.5507 57.8306ZM62.9532 43.3783C62.9532 48.0957 65.7199 52.9803 70.9753 53.1947C71.0792 53.1947 71.1789 53.2399 71.2524 53.3204C71.3259 53.4008 71.3672 53.5099 71.3672 53.6236V55.6649C71.3672 56.0118 71.4931 56.3445 71.7173 56.5898C71.9414 56.8351 72.2454 56.9729 72.5625 56.9729C72.8795 56.9729 73.1835 56.8351 73.4077 56.5898C73.6318 56.3445 73.7577 56.0118 73.7577 55.6649V53.4907C73.7574 53.3826 73.7944 53.2784 73.8612 53.1989C73.9281 53.1194 74.0199 53.0704 74.1183 53.0618C76.3358 52.8361 78.3973 51.7158 79.9018 49.9189C81.4063 48.1219 82.2461 45.7768 82.258 43.3397V34.0037C82.0509 34.2621 81.7977 34.4715 81.514 34.619C81.2303 34.7665 80.922 34.849 80.6081 34.8614C79.5774 34.8614 78.5389 33.935 77.52 32.1339C69.682 36.3966 65.6886 35.2731 64.3444 34.5912L62.9532 43.3783Z" fill="#093F68"/>
<path d="M77.7355 35.7963C78.3155 35.8649 82.6185 37.0271 83.0574 36.5468C83.9784 35.5347 83.9902 33.9737 83.7785 32.6614C83.4525 30.631 82.6805 28.7178 81.529 27.0863C80.4709 25.5939 78.7623 23.6083 76.9321 23.4668C76.8621 23.4525 76.7901 23.4568 76.7219 23.4792C76.6537 23.5015 76.5914 23.5414 76.5402 23.5955C76.5048 23.6711 76.4863 23.7549 76.4863 23.8399C76.4863 23.9249 76.5048 24.0087 76.5402 24.0843L77.324 26.3229C76.1838 24.8205 74.5782 23.8297 72.8133 23.5397C71.059 23.2637 69.2708 23.41 67.5736 23.9686C67.4404 24.9806 68.8198 25.4481 69.0903 26.4302C67.0957 26.2258 65.0991 26.7967 63.4509 28.0426C60.1746 30.5471 59.3947 34.7284 59.4888 38.824C59.5633 41.7873 59.9865 44.8279 61.3738 47.3752C64.0309 52.2599 70.2307 53.495 74.4279 50.5745C78.39 47.847 77.371 38.0392 77.7355 35.7963Z" fill="#725858"/>
<path d="M69.3921 52.5643C68.5789 52.5642 67.7686 52.4591 66.978 52.2513C65.7516 51.9528 64.5931 51.386 63.5721 50.5849C62.5511 49.7838 61.6887 48.7649 61.0368 47.5897C59.8024 45.321 59.1871 42.5378 59.1009 38.8325C58.9715 33.5491 60.3236 29.9038 63.2275 27.6824C64.7389 26.5555 66.5286 25.96 68.3575 25.9756L68.0635 25.6754C67.6089 25.2465 67.0956 24.7147 67.2014 23.9257C67.2125 23.8429 67.2455 23.7655 67.2964 23.703C67.3472 23.6405 67.4136 23.5957 67.4875 23.574C69.24 23.0012 71.0859 22.8548 72.8956 23.1452C74.1359 23.3631 75.3134 23.8914 76.3365 24.689L76.1797 24.2602C76.1169 24.1203 76.0869 23.9655 76.0923 23.8098C76.0978 23.6541 76.1386 23.5023 76.2111 23.3682C76.3007 23.2443 76.4198 23.1499 76.5554 23.0954C76.6909 23.0409 76.8376 23.0284 76.9792 23.0594C78.5232 23.1795 80.1653 24.4531 81.8583 26.8461C83.047 28.5262 83.8457 30.4966 84.1862 32.5885C84.4879 34.4797 84.1861 35.9121 83.3514 36.8512C82.9595 37.2801 81.9327 37.1643 78.6761 36.4224L78.0922 36.2937C78.053 36.8041 78.0412 37.5331 78.0334 38.3436C77.9785 42.2033 77.8923 48.6918 74.6592 50.939C73.0802 52.0172 71.2532 52.581 69.3921 52.5643ZM68.2987 26.8333C66.647 26.8366 65.0349 27.3867 63.6743 28.4114C61.0055 30.4528 59.7553 33.8579 59.8807 38.8282C59.967 42.3877 60.547 45.038 61.7109 47.1737C62.3131 48.2502 63.1084 49.1821 64.0486 49.9133C64.9888 50.6444 66.0547 51.1597 67.1818 51.4279C68.3722 51.7479 69.6088 51.8058 70.8198 51.5982C72.0308 51.3905 73.192 50.9216 74.2359 50.2185C77.1085 48.2201 77.1947 42.0318 77.2457 38.3393C77.2325 37.464 77.2718 36.5887 77.3632 35.7191C77.3814 35.613 77.4355 35.5183 77.5147 35.4539C77.5939 35.3895 77.6923 35.3601 77.7904 35.3717C77.9472 35.3717 78.2528 35.4575 78.8289 35.5861C79.793 35.8048 82.3325 36.3795 82.8224 36.2122C83.4651 35.4832 83.661 34.3124 83.4102 32.7343C83.091 30.7815 82.3447 28.9423 81.2352 27.3736C80.1692 25.8641 78.5546 24.0415 76.9243 23.9128C76.925 23.9271 76.925 23.9414 76.9243 23.9557L77.7081 26.19C77.7481 26.2867 77.7538 26.3963 77.7242 26.4974C77.6946 26.5985 77.6318 26.684 77.548 26.7374C77.4641 26.7907 77.3651 26.8081 77.2702 26.7862C77.1752 26.7644 77.0911 26.7047 77.034 26.6188C75.949 25.2049 74.4305 24.2719 72.7624 23.9943C71.175 23.7346 69.5554 23.8427 68.0087 24.3116C68.1539 24.5959 68.3514 24.8441 68.5887 25.0407C68.9884 25.3721 69.2974 25.8171 69.4822 26.3272C69.5003 26.3946 69.5029 26.4659 69.4899 26.5347C69.477 26.6035 69.4487 26.6677 69.4077 26.7218C69.3669 26.7762 69.3144 26.8187 69.2549 26.8456C69.1954 26.8725 69.1308 26.883 69.0668 26.8762C68.8055 26.8476 68.5495 26.8333 68.2987 26.8333Z" fill="#093F68"/>
<path d="M78.5467 40.5565C77.2731 40.0505 75.2195 40.2992 75.2274 43.2711C75.2274 44.8793 76.1209 46.2731 77.4651 46.3675" fill="#FFC9B0"/>
<path d="M77.4729 46.792H77.4416C75.9406 46.6719 74.8472 45.1881 74.8433 43.2668C74.8433 41.6115 75.439 40.801 75.9485 40.4107C76.3554 40.1359 76.8154 39.9692 77.2917 39.9237C77.7681 39.8783 78.2475 39.9555 78.6917 40.1491C78.7867 40.19 78.8633 40.2698 78.9052 40.3716C78.9472 40.4733 78.9513 40.589 78.9166 40.694C78.8819 40.7989 78.8112 40.885 78.7194 40.9338C78.6277 40.9826 78.5221 40.9903 78.4253 40.9553C78.1 40.8087 77.748 40.7468 77.3971 40.7743C77.0462 40.8018 76.7059 40.9181 76.4031 41.114C75.8858 41.5086 75.6193 42.2333 75.6193 43.2583C75.6193 44.7207 76.4031 45.8314 77.4925 45.9343C77.5959 45.9431 77.6918 45.9963 77.7594 46.0823C77.827 46.1683 77.8606 46.2801 77.8531 46.3932C77.8463 46.4994 77.8036 46.5991 77.7334 46.6729C77.6631 46.7466 77.5703 46.7891 77.4729 46.792Z" fill="#093F68"/>
<path d="M80.9529 41.8688C81.3988 41.8688 81.7602 41.4733 81.7602 40.9854C81.7602 40.4975 81.3988 40.1019 80.9529 40.1019C80.5071 40.1019 80.1456 40.4975 80.1456 40.9854C80.1456 41.4733 80.5071 41.8688 80.9529 41.8688Z" fill="#093F68"/>
<path d="M82.3442 39.2914C82.3442 39.2914 81.1372 38.3522 80.0712 39.0298Z" fill="#FFC9B0"/>
<path d="M82.3442 39.7203C82.263 39.7209 82.1836 39.694 82.1169 39.6431C82.0934 39.6431 81.0941 38.8797 80.2672 39.3986C80.2227 39.4271 80.1735 39.4458 80.1224 39.4535C80.0713 39.4612 80.0193 39.4577 79.9694 39.4434C79.9196 39.429 79.8728 39.4041 79.8317 39.3699C79.7907 39.3357 79.7562 39.293 79.7303 39.2442C79.7044 39.1953 79.6876 39.1412 79.6808 39.0851C79.6741 39.029 79.6776 38.9721 79.691 38.9174C79.7045 38.8628 79.7277 38.8117 79.7594 38.7669C79.791 38.7222 79.8304 38.6847 79.8753 38.6567C81.1411 37.8547 82.5127 38.8969 82.5715 38.944C82.6554 39.0103 82.7119 39.1101 82.7288 39.2218C82.7457 39.3334 82.7216 39.4479 82.6617 39.5401C82.6256 39.5956 82.578 39.6408 82.5228 39.6721C82.4676 39.7034 82.4064 39.7199 82.3442 39.7203Z" fill="#093F68"/>
<path d="M83.2181 72.9691C83.2181 72.9691 83.4337 78.5441 87.7641 79.5648C92.0946 80.5855 104.749 79.1102 104.749 79.1102C104.749 79.1102 108.147 79.1102 108.57 77.9009C108.993 76.6915 107.042 73.9983 105.004 74.187C103.74 74.3066 102.49 74.555 101.269 74.9289L91.0796 73.6424L88.9516 67.5741L83.2181 72.9691Z" fill="#FFC9B0"/>
<path d="M92.4316 80.3582C90.8411 80.3999 89.2506 80.275 87.6818 79.9851C83.1084 78.9044 82.8262 73.0463 82.8262 72.9862C82.8239 72.9214 82.835 72.8569 82.8588 72.7974C82.8825 72.738 82.9183 72.6853 82.9634 72.6432L88.6968 67.2611C88.7447 67.2161 88.8017 67.1845 88.8631 67.1688C88.9245 67.1531 88.9885 67.1539 89.0495 67.171C89.1105 67.1877 89.1668 67.2202 89.2139 67.2657C89.261 67.3112 89.2973 67.3685 89.32 67.4326L91.3578 73.2307L101.234 74.4915C102.457 74.1253 103.709 73.8798 104.972 73.7582C106.399 73.6209 107.68 74.7102 108.343 75.6794C108.934 76.5371 109.158 77.4291 108.938 78.0553C108.444 79.4533 105.411 79.5391 104.769 79.5391C104.216 79.6034 97.6125 80.3582 92.4316 80.3582ZM83.6414 73.1492C83.7237 74.1356 84.288 78.2954 87.866 79.1531C92.0867 80.148 104.6 78.7243 104.718 78.6942H104.761C106.023 78.6942 107.994 78.3983 108.217 77.7593C108.315 77.4849 108.217 76.9016 107.727 76.2069C107.187 75.4135 106.16 74.5301 105.047 74.6244C103.81 74.743 102.586 74.987 101.39 75.3535C101.339 75.3662 101.285 75.3662 101.234 75.3535L91.0443 74.0669C90.9729 74.0579 90.9051 74.0274 90.8484 73.979C90.7918 73.9306 90.7483 73.8661 90.7229 73.7925L88.7987 68.3203L83.6414 73.1492Z" fill="#093F68"/>
<path d="M90.4604 69.7698C90.4604 69.7698 84.8994 52.6158 78.9582 52.6158H65.5867C64.2324 52.6153 62.927 53.1696 61.9275 54.1697C60.928 55.1698 60.3068 56.5431 60.1864 58.0193L58.0819 83.5617H82.3442L82.0934 73.5695L90.4604 69.7698Z" fill="#F56132"/>
<path d="M82.3442 83.9991H58.0819C58.0255 84.0031 57.9689 83.9936 57.9162 83.9714C57.8634 83.9492 57.8156 83.9148 57.7762 83.8705C57.7397 83.8259 57.7122 83.7736 57.6953 83.7167C57.6784 83.6598 57.6726 83.5997 57.6782 83.5403L59.7788 57.9979C59.9028 56.4126 60.5675 54.9364 61.6407 53.8629C62.7139 52.7894 64.117 52.1972 65.571 52.2041H78.9425C85.0874 52.2041 90.5818 68.9293 90.813 69.6369C90.8471 69.74 90.8437 69.8535 90.8036 69.954C90.7635 70.0545 90.6898 70.1344 90.5975 70.1773L82.4774 73.8697L82.7204 83.5703C82.7204 83.684 82.6791 83.7931 82.6056 83.8735C82.5321 83.9539 82.4324 83.9991 82.3285 83.9991H82.3442ZM58.513 83.1414H81.9405L81.7054 73.5866C81.699 73.4967 81.7186 73.4069 81.7615 73.3299C81.8044 73.2529 81.8684 73.1927 81.9444 73.1578L89.9626 69.5125C89.0037 66.7178 87.8765 63.9958 86.5884 61.3644C83.8726 55.9094 81.2312 53.0232 78.9582 53.0232H65.5867C64.3285 53.0171 63.1143 53.5295 62.1856 54.4584C61.2568 55.3873 60.6816 56.6646 60.5743 58.0365L58.513 83.1414Z" fill="#093F68"/>
<path d="M54.5235 56.6685H70.4384C71.4499 56.6687 72.4259 57.0762 73.1804 57.8133C73.935 58.5504 74.4153 59.5656 74.5298 60.6653L76.8812 83.5703H52.6816L50.4204 61.6774C50.3551 61.0461 50.4127 60.4068 50.5893 59.8016C50.7659 59.1963 51.0576 58.6388 51.4451 58.1657C51.8327 57.6926 52.3073 57.3146 52.8379 57.0566C53.3685 56.7985 53.9429 56.6662 54.5235 56.6685Z" fill="#68E1FD"/>
<path d="M76.8969 83.9991H52.6816C52.5853 83.9999 52.4921 83.9618 52.4199 83.8922C52.3476 83.8226 52.3012 83.7263 52.2897 83.6217L50.0284 61.7246C49.9571 61.0331 50.0203 60.3329 50.2139 59.6701C50.4075 59.0072 50.727 58.3967 51.1516 57.8787C51.5761 57.3606 52.0961 56.9467 52.6772 56.6642C53.2584 56.3817 53.8876 56.237 54.5235 56.2396H70.4384C71.5463 56.2393 72.6155 56.6856 73.4418 57.4933C74.268 58.301 74.7935 59.4134 74.9178 60.6182L77.2692 83.5231C77.2753 83.5833 77.2698 83.6442 77.2529 83.7018C77.236 83.7595 77.2082 83.8126 77.1712 83.8576C77.1363 83.9 77.0941 83.9343 77.047 83.9586C76.9999 83.9829 76.9489 83.9967 76.8969 83.9991ZM53.046 83.1414H76.4579L74.1379 60.7125C74.0357 59.7174 73.6018 58.7985 72.9193 58.1315C72.2368 57.4645 71.3535 57.0963 70.4384 57.0973H54.5235C53.999 57.0973 53.4805 57.2185 53.0018 57.4529C52.523 57.6873 52.0949 58.0296 51.7454 58.4574C51.3958 58.8853 51.1327 59.389 50.9733 59.9358C50.8138 60.4825 50.7616 61.0599 50.8201 61.6303L53.046 83.1414Z" fill="#093F68"/>
<path d="M82.0934 74.0069C82.014 74.0063 81.9367 73.9793 81.8716 73.9296C81.8065 73.8798 81.7568 73.8095 81.729 73.7282L77.763 62.4665C77.7256 62.3602 77.7283 62.2419 77.7705 62.1378C77.8128 62.0336 77.8911 61.9521 77.9883 61.9112C78.0855 61.8702 78.1936 61.8732 78.2887 61.9194C78.3839 61.9657 78.4584 62.0514 78.4958 62.1577L82.4657 73.4237C82.484 73.4763 82.4926 73.5324 82.4911 73.5887C82.4896 73.645 82.4779 73.7004 82.4568 73.7518C82.4357 73.8032 82.4055 73.8495 82.3681 73.8881C82.3306 73.9267 82.2866 73.9569 82.2384 73.9769C82.1919 73.9955 82.1429 74.0057 82.0934 74.0069Z" fill="#093F68"/>
<path d="M126.15 70.0014H135.164V77.0475C135.164 77.391 135.102 77.7312 134.982 78.0486C134.862 78.3659 134.686 78.6543 134.464 78.8972C134.242 79.1402 133.978 79.3329 133.688 79.4643C133.398 79.5958 133.087 79.6634 132.773 79.6634H128.541C128.227 79.6634 127.916 79.5958 127.626 79.4643C127.336 79.3329 127.073 79.1402 126.851 78.8972C126.629 78.6543 126.452 78.3659 126.332 78.0486C126.212 77.7312 126.15 77.391 126.15 77.0475V70.0014Z" fill="#FFBC0E"/>
<path d="M132.789 80.0923H128.541C127.803 80.0912 127.096 79.77 126.575 79.1992C126.053 78.6284 125.76 77.8546 125.758 77.0474V70.0014C125.758 69.8877 125.8 69.7786 125.873 69.6982C125.947 69.6178 126.046 69.5726 126.15 69.5726H135.164C135.268 69.5726 135.368 69.6178 135.441 69.6982C135.515 69.7786 135.556 69.8877 135.556 70.0014V77.0474C135.555 77.8517 135.264 78.6229 134.745 79.1932C134.227 79.7635 133.524 80.0866 132.789 80.0923ZM126.542 70.4303V77.0474C126.543 77.6272 126.754 78.1828 127.129 78.5927C127.503 79.0027 128.011 79.2335 128.541 79.2346H132.789C133.319 79.2335 133.826 79.0025 134.2 78.5925C134.574 78.1824 134.784 77.6268 134.784 77.0474V70.4303H126.542Z" fill="#093F68"/>
<path d="M136.426 77.2147H135.176C135.072 77.2147 134.972 77.1695 134.899 77.0891C134.825 77.0087 134.784 76.8996 134.784 76.7859V71.9527C134.784 71.839 134.825 71.7299 134.899 71.6495C134.972 71.569 135.072 71.5239 135.176 71.5239H136.426C136.776 71.509 137.125 71.5716 137.452 71.7079C137.78 71.8442 138.078 72.0514 138.331 72.3171C138.583 72.5827 138.784 72.9015 138.921 73.2541C139.058 73.6067 139.129 73.986 139.129 74.3693C139.129 74.7525 139.058 75.1318 138.921 75.4845C138.784 75.8371 138.583 76.1558 138.331 76.4215C138.078 76.6872 137.78 76.8944 137.452 77.0307C137.125 77.167 136.776 77.2296 136.426 77.2147ZM135.568 76.357H136.426C136.672 76.3695 136.917 76.3273 137.147 76.2331C137.378 76.1388 137.588 75.9944 137.766 75.8086C137.944 75.6228 138.085 75.3995 138.182 75.1521C138.279 74.9047 138.329 74.6384 138.329 74.3693C138.329 74.1002 138.279 73.8339 138.182 73.5865C138.085 73.3391 137.944 73.1158 137.766 72.93C137.588 72.7441 137.378 72.5997 137.147 72.5055C136.917 72.4112 136.672 72.3691 136.426 72.3816H135.568V76.357Z" fill="#093F68"/>
</svg>
