<svg width="190" height="190" viewBox="0 0 190 190" fill="none" xmlns="http://www.w3.org/2000/svg">
<circle cx="95" cy="95" r="95" fill="#C1F0FB"/>
<path d="M55.56 140.72C54.6533 140.72 53.8133 140.4 53.04 139.76C52.2667 139.12 51.7333 138.307 51.44 137.32C51.3333 136.947 51.2533 136.547 51.2 136.12C51.1733 135.72 51.16 135.293 51.16 134.84C51.16 133.4 51.3467 131.76 51.72 129.92C52.12 128.08 52.6267 126.133 53.24 124.08C53.88 122 54.5733 119.92 55.32 117.84C56.0933 115.733 56.84 113.707 57.56 111.76C58.3067 109.787 58.9867 107.973 59.6 106.32C60.2133 104.64 60.6933 103.227 61.04 102.08C61.2267 101.493 61.32 101.013 61.32 100.64C61.32 100.16 61.16 99.92 60.84 99.92C60.44 99.92 59.8267 100.307 59 101.08C58.1733 101.853 57.2267 102.907 56.16 104.24C55.0933 105.573 53.9867 107.12 52.84 108.88C51.6933 110.64 50.6 112.507 49.56 114.48C48.52 116.453 47.6133 118.453 46.84 120.48C46.0667 122.507 45.5067 124.467 45.16 126.36C45.1333 126.547 45.1067 126.84 45.08 127.24C45.0533 127.64 44.9867 128 44.88 128.32C44.8 128.64 44.6267 128.8 44.36 128.8C43.7733 128.773 43.36 128.48 43.12 127.92C42.9067 127.36 42.76 126.84 42.68 126.36C42.4667 124.947 42.36 123.293 42.36 121.4C42.36 119.88 42.4267 118.307 42.56 116.68C42.6933 115.053 42.88 113.507 43.12 112.04C43.36 110.573 43.64 109.333 43.96 108.32C44.1733 107.68 44.4667 107.107 44.84 106.6C45.24 106.067 45.6 105.8 45.92 105.8C46.1067 105.8 46.2533 105.933 46.36 106.2C46.4933 106.467 46.5467 106.947 46.52 107.64C46.52 107.933 46.3867 108.493 46.12 109.32C45.88 110.12 45.5867 111.16 45.24 112.44C44.92 113.72 44.64 115.2 44.4 116.88C44.16 118.56 44.04 120.413 44.04 122.44C44.04 123.4 44.08 124.4 44.16 125.44C44.4 124.693 44.76 123.653 45.24 122.32C45.7467 120.987 46.36 119.48 47.08 117.8C47.8267 116.12 48.6533 114.387 49.56 112.6C50.4933 110.787 51.4933 109.027 52.56 107.32C53.6267 105.613 54.7467 104.067 55.92 102.68C57.0933 101.293 58.2933 100.187 59.52 99.36C60.1333 98.96 60.7733 98.76 61.44 98.76C62.16 98.76 62.7733 98.9867 63.28 99.44C63.8133 99.8933 64.0533 100.533 64 101.36C63.9467 102.48 63.6667 103.613 63.16 104.76C62.68 105.88 62.1067 106.973 61.44 108.04C60.8 109.107 60.2 110.133 59.64 111.12C58.8667 112.533 58.08 114.107 57.28 115.84C56.5067 117.573 55.7867 119.387 55.12 121.28C54.48 123.173 53.96 125.08 53.56 127C53.16 128.92 52.96 130.773 52.96 132.56C52.96 134.053 53.1467 135.507 53.52 136.92C53.8133 137.96 54.1733 138.68 54.6 139.08C55.0533 139.48 55.4933 139.68 55.92 139.68C56.4 139.68 56.84 139.547 57.24 139.28C57.6667 139.013 58 138.72 58.24 138.4C58.5067 138.107 58.6267 137.933 58.6 137.88C58.6533 137.853 58.7067 137.84 58.76 137.84C58.9467 137.84 58.9867 137.96 58.88 138.2C58.8 138.467 58.68 138.733 58.52 139C58.36 139.293 58.24 139.48 58.16 139.56C57.76 139.96 57.3333 140.253 56.88 140.44C56.4533 140.627 56.0133 140.72 55.56 140.72ZM63.2953 130.52C62.3353 130.52 61.4953 129.96 60.7753 128.84C60.082 127.693 59.7353 125.893 59.7353 123.44C59.7353 121.84 59.9353 120.56 60.3353 119.6C60.7353 118.613 61.2286 117.893 61.8153 117.44C62.402 116.987 62.962 116.76 63.4953 116.76C64.0286 116.76 64.482 116.947 64.8553 117.32C65.2286 117.667 65.4153 118.173 65.4153 118.84C65.4153 119.48 65.2286 120.16 64.8553 120.88C64.482 121.573 64.0286 122.213 63.4953 122.8C62.9886 123.36 62.482 123.733 61.9753 123.92C61.8686 123.973 61.7353 124 61.5753 124C61.4686 124 61.4153 123.96 61.4153 123.88C61.4153 123.667 61.6286 123.427 62.0553 123.16C62.5886 122.787 63.0953 122.227 63.5753 121.48C64.0553 120.707 64.2953 120.027 64.2953 119.44C64.2953 119.093 64.2153 118.827 64.0553 118.64C63.8953 118.427 63.7086 118.32 63.4953 118.32C63.0953 118.32 62.6553 118.64 62.1753 119.28C61.722 119.893 61.3886 120.96 61.1753 122.48C61.122 122.907 61.0686 123.32 61.0153 123.72C60.9886 124.093 60.9753 124.467 60.9753 124.84C60.9753 126.333 61.202 127.507 61.6553 128.36C62.1086 129.187 62.7086 129.6 63.4553 129.6C64.0953 129.6 64.8153 129.227 65.6153 128.48C66.4153 127.707 67.202 126.507 67.9753 124.88C68.162 124.453 68.3753 124.24 68.6153 124.24C68.7753 124.24 68.8553 124.347 68.8553 124.56C68.8553 124.747 68.802 124.947 68.6953 125.16C68.002 126.867 67.162 128.187 66.1753 129.12C65.1886 130.053 64.2286 130.52 63.2953 130.52ZM67.185 133.2C66.9983 133.2 66.9317 133.053 66.985 132.76C67.1717 131.347 67.5717 129.853 68.185 128.28C68.825 126.707 69.5983 125.187 70.505 123.72C70.0783 122.787 69.7317 121.933 69.465 121.16C69.225 120.36 69.0517 119.787 68.945 119.44C68.785 118.8 68.705 118.267 68.705 117.84C68.705 117.413 68.8917 117.2 69.265 117.2C69.585 117.2 69.8917 117.347 70.185 117.64C70.505 117.933 70.7317 118.24 70.865 118.56C71.105 119.067 71.2517 119.533 71.305 119.96C71.3583 120.387 71.425 120.827 71.505 121.28L71.625 122C72.265 121.093 72.9317 120.24 73.625 119.44C74.345 118.64 75.065 117.933 75.785 117.32C75.865 117.24 75.9583 117.2 76.065 117.2C76.2517 117.2 76.3983 117.307 76.505 117.52C76.6383 117.707 76.705 117.933 76.705 118.2C76.705 118.44 76.625 118.64 76.465 118.8C75.6917 119.467 74.9183 120.213 74.145 121.04C73.3717 121.867 72.6383 122.733 71.945 123.64C72.0783 124.307 72.2917 124.987 72.585 125.68C72.8783 126.347 73.3583 127.147 74.025 128.08C74.5583 128.827 74.9583 129.2 75.225 129.2C75.4383 129.2 75.5717 129.053 75.625 128.76C75.705 128.44 75.745 128.053 75.745 127.6C75.745 126.987 75.6917 126.32 75.585 125.6C75.505 124.88 75.4117 124.227 75.305 123.64C75.225 123.053 75.1717 122.693 75.145 122.56C75.1183 122.453 75.105 122.36 75.105 122.28C75.105 122.173 75.105 122.093 75.105 122.04C75.105 121.8 75.1583 121.68 75.265 121.68C75.345 121.68 75.4517 121.76 75.585 121.92C75.7183 122.08 75.8117 122.267 75.865 122.48C76.025 122.907 76.1717 123.467 76.305 124.16C76.465 124.827 76.5983 125.493 76.705 126.16C76.8117 126.8 76.865 127.307 76.865 127.68C76.865 128.24 76.7583 128.76 76.545 129.24C76.3583 129.72 76.0383 129.96 75.585 129.96C74.9983 129.96 74.4117 129.68 73.825 129.12C73.265 128.56 72.745 127.893 72.265 127.12C71.785 126.32 71.3717 125.587 71.025 124.92C70.225 126.093 69.545 127.307 68.985 128.56C68.4517 129.813 68.0917 131.067 67.905 132.32C67.8783 132.587 67.785 132.8 67.625 132.96C67.465 133.12 67.3183 133.2 67.185 133.2ZM81.8481 136.4C81.5815 136.4 81.3015 136.227 81.0081 135.88C80.7415 135.56 80.4881 135.107 80.2481 134.52C79.8481 133.56 79.5681 132.547 79.4081 131.48C79.2481 130.44 79.1681 129.387 79.1681 128.32C79.1681 127.147 79.2481 126 79.4081 124.88C79.5681 123.76 79.7415 122.747 79.9281 121.84C80.0615 121.2 80.2215 120.52 80.4081 119.8C80.5948 119.08 80.7681 118.507 80.9281 118.08C80.7681 118.107 80.5148 118.2 80.1681 118.36C79.8215 118.52 79.4615 118.68 79.0881 118.84C78.7415 119 78.4348 119.08 78.1681 119.08C77.7681 119.08 77.5681 118.853 77.5681 118.4C77.5681 118.16 77.6481 117.947 77.8081 117.76C77.9948 117.573 78.2215 117.427 78.4881 117.32C79.0215 117.08 79.6081 116.907 80.2481 116.8C80.8881 116.667 81.3148 116.533 81.5281 116.4L82.5681 113.76C82.6748 113.493 82.8615 113.067 83.1281 112.48C83.4215 111.867 83.7548 111.213 84.1281 110.52C84.5281 109.827 84.9148 109.2 85.2881 108.64C85.5815 108.213 85.8615 107.88 86.1281 107.64C86.3948 107.373 86.6881 107.24 87.0081 107.24C87.4881 107.24 87.7281 107.427 87.7281 107.8C87.7281 108.013 87.6348 108.333 87.4481 108.76C87.2881 109.187 86.9815 109.747 86.5281 110.44C86.0215 111.24 85.5015 112.04 84.9681 112.84C84.4615 113.613 84.0215 114.427 83.6481 115.28C83.6215 115.387 83.5548 115.56 83.4481 115.8C83.3681 116.013 83.3015 116.147 83.2481 116.2L84.0481 116.08C84.2615 116.053 84.5015 116.04 84.7681 116.04C85.0348 116.013 85.3281 116 85.6481 116C86.1015 116 86.5281 116.027 86.9281 116.08C87.3548 116.107 87.7015 116.173 87.9681 116.28C88.1015 116.333 88.2215 116.4 88.3281 116.48C88.4615 116.533 88.5281 116.587 88.5281 116.64C88.5281 116.747 88.1815 116.8 87.4881 116.8C87.0881 116.8 86.5148 116.867 85.7681 117C85.0481 117.133 84.2215 117.347 83.2881 117.64C82.8348 117.773 82.5281 117.96 82.3681 118.2C82.2081 118.44 81.9948 119.013 81.7281 119.92C81.3281 121.36 81.0081 122.747 80.7681 124.08C80.5281 125.387 80.3415 126.72 80.2081 128.08C80.1815 128.347 80.1548 128.627 80.1281 128.92C80.1281 129.213 80.1281 129.533 80.1281 129.88C80.1281 130.787 80.2081 131.733 80.3681 132.72C80.5548 133.707 80.8215 134.56 81.1681 135.28C81.2481 135.44 81.3281 135.587 81.4081 135.72C81.5148 135.853 81.6348 135.947 81.7681 136C81.9548 136.08 82.0481 136.173 82.0481 136.28C82.0481 136.36 81.9815 136.4 81.8481 136.4ZM121.548 137.64C120.801 137.64 120.174 137.32 119.668 136.68C119.161 136.067 118.788 135.307 118.548 134.4C118.308 133.493 118.188 132.627 118.188 131.8C118.188 130.2 118.414 128.427 118.868 126.48C119.321 124.533 119.881 122.547 120.548 120.52C121.241 118.493 121.948 116.547 122.668 114.68C123.414 112.787 124.081 111.08 124.668 109.56C125.254 108.04 125.668 106.827 125.908 105.92C125.961 105.68 126.001 105.467 126.028 105.28C126.054 105.067 126.068 104.893 126.068 104.76C126.068 104.28 125.921 104.04 125.628 104.04C125.201 104.04 124.561 104.48 123.708 105.36C122.854 106.213 121.894 107.387 120.828 108.88C119.788 110.347 118.748 112.013 117.708 113.88C116.668 115.747 115.734 117.68 114.908 119.68C114.108 121.653 113.548 123.587 113.228 125.48C113.121 126.173 112.934 126.693 112.668 127.04C112.428 127.387 112.188 127.56 111.948 127.56C111.734 127.56 111.548 127.427 111.388 127.16C111.228 126.893 111.148 126.507 111.148 126C111.121 123.867 111.054 121.733 110.948 119.6C110.841 117.44 110.601 115.373 110.228 113.4C109.668 110.36 109.028 108.2 108.308 106.92C107.614 105.64 106.894 105 106.148 105C105.454 105 104.774 105.427 104.108 106.28C103.468 107.107 102.854 108.213 102.268 109.6C101.681 110.96 101.161 112.453 100.708 114.08C100.254 115.707 99.8942 117.32 99.6275 118.92C99.3875 120.52 99.2675 121.947 99.2675 123.2C99.2675 123.493 99.2675 123.787 99.2675 124.08C99.2942 124.347 99.3208 124.6 99.3475 124.84C99.3742 124.973 99.3875 125.12 99.3875 125.28C99.3875 125.413 99.3875 125.547 99.3875 125.68C99.3875 126.293 99.3075 126.84 99.1475 127.32C98.9875 127.8 98.8008 128.04 98.5875 128.04C98.3742 128.04 98.1742 127.8 97.9875 127.32C97.7742 126.84 97.6008 126.24 97.4675 125.52C97.3342 124.773 97.2275 124.147 97.1475 123.64C97.0942 123.267 96.9742 122.707 96.7875 121.96C96.6275 121.213 96.4275 120.4 96.1875 119.52C95.9475 118.613 95.6675 117.733 95.3475 116.88C95.0542 116 94.7342 115.253 94.3875 114.64C94.0408 114 93.6808 113.587 93.3075 113.4C93.2542 113.347 93.2275 113.293 93.2275 113.24C93.2275 113.107 93.3608 113.027 93.6275 113C93.9208 112.973 94.1208 112.987 94.2275 113.04C94.7875 113.2 95.2808 113.6 95.7075 114.24C96.1608 114.853 96.5475 115.587 96.8675 116.44C97.2142 117.267 97.5075 118.093 97.7475 118.92C97.9875 119.72 98.1875 120.387 98.3475 120.92C98.6408 119.08 98.9875 117.267 99.3875 115.48C99.8142 113.667 100.374 111.893 101.068 110.16C102.054 107.76 103.028 106.053 103.988 105.04C104.948 104 105.854 103.48 106.708 103.48C107.614 103.48 108.428 103.947 109.148 104.88C109.894 105.787 110.521 107 111.028 108.52C111.561 110.013 111.921 111.64 112.108 113.4C112.214 114.307 112.281 115.293 112.308 116.36C112.334 117.4 112.348 118.427 112.348 119.44V122.56C112.348 123.013 112.348 123.427 112.348 123.8C112.348 124.173 112.361 124.48 112.388 124.72C112.574 124.08 112.881 123.187 113.308 122.04C113.734 120.867 114.254 119.56 114.868 118.12C115.481 116.653 116.174 115.147 116.948 113.6C117.721 112.053 118.548 110.573 119.428 109.16C120.334 107.72 121.268 106.467 122.228 105.4C123.214 104.307 124.201 103.507 125.188 103C125.774 102.707 126.321 102.56 126.828 102.56C127.414 102.56 127.908 102.733 128.308 103.08C128.708 103.4 128.908 103.88 128.908 104.52C128.908 105.48 128.708 106.44 128.308 107.4C127.908 108.333 127.428 109.253 126.868 110.16C126.308 111.067 125.788 111.947 125.308 112.8C124.454 114.347 123.601 116.133 122.748 118.16C121.894 120.187 121.174 122.28 120.588 124.44C120.028 126.6 119.748 128.68 119.748 130.68C119.748 131.32 119.774 131.947 119.828 132.56C119.908 133.173 120.028 133.76 120.188 134.32C120.428 135.173 120.721 135.76 121.068 136.08C121.441 136.427 121.814 136.6 122.188 136.6C122.588 136.6 122.961 136.48 123.308 136.24C123.654 136.027 123.934 135.787 124.148 135.52C124.361 135.28 124.454 135.133 124.428 135.08C124.668 135 124.761 135.067 124.708 135.28C124.654 135.52 124.548 135.76 124.388 136C124.228 136.267 124.121 136.427 124.068 136.48C123.134 137.253 122.294 137.64 121.548 137.64ZM129.975 130.52C129.015 130.52 128.175 129.96 127.455 128.84C126.762 127.693 126.415 125.893 126.415 123.44C126.415 121.84 126.615 120.56 127.015 119.6C127.415 118.613 127.908 117.893 128.495 117.44C129.082 116.987 129.642 116.76 130.175 116.76C130.708 116.76 131.162 116.947 131.535 117.32C131.908 117.667 132.095 118.173 132.095 118.84C132.095 119.48 131.908 120.16 131.535 120.88C131.162 121.573 130.708 122.213 130.175 122.8C129.668 123.36 129.162 123.733 128.655 123.92C128.548 123.973 128.415 124 128.255 124C128.148 124 128.095 123.96 128.095 123.88C128.095 123.667 128.308 123.427 128.735 123.16C129.268 122.787 129.775 122.227 130.255 121.48C130.735 120.707 130.975 120.027 130.975 119.44C130.975 119.093 130.895 118.827 130.735 118.64C130.575 118.427 130.388 118.32 130.175 118.32C129.775 118.32 129.335 118.64 128.855 119.28C128.402 119.893 128.068 120.96 127.855 122.48C127.802 122.907 127.748 123.32 127.695 123.72C127.668 124.093 127.655 124.467 127.655 124.84C127.655 126.333 127.882 127.507 128.335 128.36C128.788 129.187 129.388 129.6 130.135 129.6C130.775 129.6 131.495 129.227 132.295 128.48C133.095 127.707 133.882 126.507 134.655 124.88C134.842 124.453 135.055 124.24 135.295 124.24C135.455 124.24 135.535 124.347 135.535 124.56C135.535 124.747 135.482 124.947 135.375 125.16C134.682 126.867 133.842 128.187 132.855 129.12C131.868 130.053 130.908 130.52 129.975 130.52ZM135.745 129.68C135.265 129.68 134.918 129.48 134.705 129.08C134.491 128.653 134.385 128.16 134.385 127.6C134.385 126.88 134.505 126.04 134.745 125.08C135.011 124.12 135.358 123.133 135.785 122.12C136.211 121.08 136.691 120.133 137.225 119.28C137.785 118.4 138.371 117.693 138.985 117.16C139.598 116.6 140.198 116.32 140.785 116.32C141.318 116.32 141.771 116.56 142.145 117.04C142.545 117.493 142.745 118.013 142.745 118.6C142.745 118.947 142.691 119.24 142.585 119.48C142.478 119.693 142.358 119.8 142.225 119.8C142.118 119.8 142.025 119.72 141.945 119.56C141.678 118.947 141.385 118.507 141.065 118.24C140.771 117.973 140.465 117.84 140.145 117.84C139.611 117.84 139.078 118.147 138.545 118.76C138.038 119.347 137.625 120.027 137.305 120.8C137.038 121.387 136.785 122.093 136.545 122.92C136.331 123.72 136.145 124.52 135.985 125.32C135.851 126.093 135.785 126.733 135.785 127.24C135.785 128.147 135.998 128.6 136.425 128.6C136.958 128.6 137.638 128.013 138.465 126.84C139.078 125.987 139.625 125 140.105 123.88C140.611 122.76 141.038 121.787 141.385 120.96C141.518 120.693 141.665 120.52 141.825 120.44C141.985 120.36 142.131 120.32 142.265 120.32C142.585 120.32 142.785 120.453 142.865 120.72C142.971 120.987 143.025 121.213 143.025 121.4C143.025 122.093 142.958 122.72 142.825 123.28C142.691 123.813 142.625 124.467 142.625 125.24C142.625 125.8 142.665 126.32 142.745 126.8C142.851 127.253 143.025 127.48 143.265 127.48C143.558 127.48 143.931 127.107 144.385 126.36C144.491 126.147 144.651 126.04 144.865 126.04C145.105 126.04 145.225 126.16 145.225 126.4C145.225 126.747 144.985 127.12 144.505 127.52C144.025 127.893 143.545 128.08 143.065 128.08C142.425 128.08 141.971 127.813 141.705 127.28C141.251 126.4 141.025 125.613 141.025 124.92C141.025 124.2 141.011 123.707 140.985 123.44C140.851 123.76 140.598 124.267 140.225 124.96C139.851 125.627 139.411 126.333 138.905 127.08C138.398 127.8 137.865 128.413 137.305 128.92C136.745 129.427 136.225 129.68 135.745 129.68ZM150.973 136.36C150.626 136.36 150.293 136.227 149.973 135.96C149.679 135.693 149.426 135.427 149.213 135.16C148.359 134.173 147.639 132.867 147.053 131.24C146.493 129.613 146.066 127.827 145.773 125.88C145.479 123.907 145.333 121.907 145.333 119.88C145.333 117.987 145.453 116.147 145.693 114.36C145.959 112.573 146.359 110.947 146.893 109.48C147.426 108.013 148.093 106.84 148.893 105.96C149.933 104.787 150.933 104.2 151.893 104.2C152.479 104.2 152.946 104.467 153.293 105C153.666 105.507 153.853 106.32 153.853 107.44C153.853 108.507 153.639 109.867 153.213 111.52C152.813 113.147 152.119 115.093 151.133 117.36C150.786 118.107 150.413 118.853 150.013 119.6C149.639 120.347 149.239 121.133 148.812 121.96C148.653 122.28 148.519 122.44 148.413 122.44C148.359 122.44 148.333 122.387 148.333 122.28C148.333 122.067 148.426 121.787 148.613 121.44C151.039 116.88 152.253 112.347 152.253 107.84C152.253 106.053 151.879 105.16 151.133 105.16C150.599 105.16 149.973 105.68 149.253 106.72C148.266 108.187 147.586 109.933 147.213 111.96C146.839 113.96 146.653 115.987 146.653 118.04C146.653 119.587 146.719 121.093 146.853 122.56C146.986 124 147.146 125.307 147.333 126.48C147.413 126.987 147.533 127.667 147.693 128.52C147.853 129.373 148.066 130.267 148.333 131.2C148.599 132.16 148.893 133.027 149.213 133.8C149.559 134.6 149.933 135.173 150.333 135.52C150.439 135.6 150.546 135.68 150.653 135.76C150.786 135.867 150.933 135.933 151.093 135.96C151.333 135.96 151.453 136.027 151.453 136.16C151.453 136.293 151.293 136.36 150.973 136.36Z" fill="#00006D"/>
<path d="M60.7256 72.8583C60.7256 72.8583 61.8832 90.215 97.2398 89.9578C132.596 89.7006 133.111 73.7586 133.625 71.0576C134.14 68.3565 120.385 62.9544 94.9246 64.112C69.4647 65.2696 59.325 65.6483 60.7256 72.8583Z" fill="url(#paint0_linear_115_37)"/>
<path d="M58.0245 58.4812C58.0245 58.4812 55.9666 61.0537 56.2238 62.8115C56.4811 64.5693 55.4521 63.6261 56.2238 66.0628C56.9955 68.4994 56.3524 69.8571 59.3107 70.9361C62.269 72.0151 60.8542 72.8297 64.0697 73.7801C67.2853 74.7304 69.2146 75.1306 71.5298 76.3525C73.845 77.5744 74.7453 78.2461 77.4464 78.1103C80.1474 77.9745 83.363 78.2461 83.363 78.2461L88.3792 79.0607C88.3792 79.0607 89.1509 79.3322 92.7523 79.6038C96.3538 79.8753 97.64 78.6534 99.4407 78.5176C101.241 78.3818 103.942 79.1964 105.486 78.7891C107.029 78.3818 110.502 77.0313 110.502 77.0313C110.502 77.0313 113.718 74.7304 115.518 74.8662C117.319 75.002 120.277 74.3231 121.692 73.5157C123.107 72.7011 126.323 72.4295 126.323 72.4295C126.323 72.4295 128.509 71.4792 130.567 70.4002C132.625 69.314 133.654 69.314 134.554 68.6423C135.455 67.9635 135.848 67.892 136.741 66.2057C137.491 64.7765 137.384 62.8186 136.741 60.7893C136.098 58.7599 125.937 53.4793 125.937 53.4793L65.6346 50.6353L58.0245 58.4812Z" fill="url(#paint1_radial_115_37)"/>
<path d="M61.383 54.4368C61.383 54.4368 56.574 56.8163 57.2171 58.1025C57.8602 59.3887 58.2532 59.2315 58.2532 59.2315C58.2532 59.2315 64.7128 60.5892 76.6675 63.6333C88.6222 66.6773 94.5816 68.6638 97.5757 70.8789C101.306 73.6443 102.256 75.0949 104.7 74.6304C107.144 74.1659 108.944 70.8861 113.703 67.3776C118.462 63.8691 120.285 63.3832 126.751 61.904C132.861 60.5035 135.948 60.2033 136.205 58.567C136.462 56.9306 135.562 53.1077 134.404 52.5218C133.247 51.9358 76.1602 52.1716 76.1602 52.1716C64.1984 51.7 61.383 54.4368 61.383 54.4368Z" fill="url(#paint2_linear_115_37)"/>
<path d="M66.2063 48.6988L65.5417 52.6432L66.5207 57.2736C66.6851 58.0596 67.1638 58.7456 67.8426 59.1601C70.315 60.6821 77.3392 63.8905 92.1736 63.3903C111.531 62.74 118.398 59.9389 124.436 57.2951C129.252 55.1871 130.103 48.2344 130.253 45.5047C111.26 57.4666 86.0783 58.0096 66.2063 48.6988Z" fill="url(#paint3_linear_115_37)"/>
<path d="M127.144 47.3412C127.159 46.7052 127.144 46.3194 127.144 46.3194L68.5643 46.0478L67.7212 51.8858C86.407 59.8889 109.788 58.7599 127.144 47.3412Z" fill="#972F00"/>
<path d="M57.2314 44.4329C56.4882 45.1618 55.302 44.6473 54.3231 44.3329C53.3441 44.0185 52.1365 44.5115 52.2723 45.5619C52.3652 46.2622 52.8511 46.448 53.4728 46.7409C54.0944 47.0268 54.709 47.2626 54.2802 47.8199C53.8372 48.3987 53.287 47.8843 52.5367 48.5131C51.1076 49.7135 52.8797 51.893 53.83 51.8644C55.2806 51.8215 55.595 51.014 56.3882 50.4781L56.4096 50.5925C56.5454 51.2927 57.36 51.6214 57.9459 51.2141L57.996 51.1784C58.4819 50.8425 59.1893 50.9212 59.4965 51.4285C59.8824 52.0716 59.3751 52.8648 59.2965 53.6151C59.1893 54.6869 60.2111 55.723 61.2401 55.5873C62.269 55.4515 63.0122 54.1939 62.6549 53.1792C62.6549 54.3439 63.591 55.4229 64.7057 55.5444C65.8204 55.6659 66.9494 54.8084 67.1781 53.6651C67.2496 54.1724 67.4568 54.6512 67.7569 55.0585C68.2214 55.6873 69.2146 55.6944 69.6791 55.0656C69.9292 54.7226 70.3293 54.5011 70.7295 54.6083C69.9935 55.1371 70.4437 56.4733 71.2868 56.7949C72.13 57.1164 73.0518 56.7734 73.8879 56.4304C75.4313 55.7945 76.9819 55.1585 78.5254 54.5226C79.5901 54.0867 80.6619 53.6436 81.7695 53.3507C84.4634 52.6361 86.1569 53.3935 88.2935 54.6297C89.2653 55.1942 90.4658 55.1799 91.4233 54.594C91.7806 54.3725 92.0664 54.1867 92.1164 54.1152C93.4169 53.808 93.5098 55.3586 93.0382 56.1446C92.7238 56.6662 92.5952 57.3022 92.8524 57.8596C93.4169 59.0815 95.0961 58.6027 95.8893 57.6238C96.661 56.6805 97.247 56.1732 98.4046 55.8802C99.6408 55.5658 100.806 55.916 101.927 55.5301C102.828 55.2228 103.457 54.4654 104.407 54.4511C106.036 54.4225 106.122 56.6591 107.83 56.6377C109.387 56.6162 109.616 55.3014 110.774 54.9084C111.796 54.5654 112.267 55.1085 112.324 56.2161C112.381 57.3236 112.624 58.1025 113.582 58.6027C115.44 59.5745 117.555 55.7373 119.22 57.0307C120.263 57.8381 119.734 59.9318 120.892 60.5535C121.585 60.925 122.435 60.4677 122.993 59.9032C123.55 59.3387 124.493 57.5094 125.229 57.2308C126.83 56.6162 128.445 58.9671 129.917 58.0811C130.617 57.6595 130.753 57.2951 131.06 56.5162C131.36 55.7373 131.81 54.9013 132.589 54.6941C132.961 54.594 133.361 54.7655 133.625 55.0442C134.233 55.673 135.226 55.8159 135.948 55.3157C137.827 54.0152 138.692 51.3642 138.091 48.3487C137.334 44.5472 132.804 43.4968 133.19 41.2317C130.696 42.5465 129.931 43.7112 127.294 42.7537C126.03 42.2964 124.808 41.5675 123.464 41.5604C121.185 41.5532 119.413 43.5754 117.262 44.3543C115.24 45.0903 112.989 44.6687 110.988 43.8613C108.994 43.0538 107.158 41.8748 105.186 41.0101C101.091 39.2166 96.4252 38.8593 92.1235 40.0026C88.9009 40.8601 85.7139 42.5465 82.4269 42.0177C80.0188 41.6318 77.9394 40.0955 75.66 39.2094C70.7152 37.3016 65.9848 41.9462 61.1186 42.2106C59.4965 42.2964 57.9316 39.8311 56.3024 41.1959C55.545 41.8319 55.6522 42.8037 55.9237 43.5183C56.0095 43.704 56.9384 44.7187 57.2314 44.4329Z" fill="url(#paint4_linear_115_37)"/>
<path d="M73.4591 19.073C67.0995 21.0809 59.5751 27.3048 58.0317 34.6719C56.4882 42.0391 59.2322 44.7902 67.9784 47.184C76.7247 49.5778 82.8914 49.5849 94.3816 50.4424C105.865 51.2999 119.756 51.2999 126.616 48.0414C133.475 44.783 138.442 45.2975 132.618 31.4135C126.794 17.5295 106.393 15.7646 96.4324 15.1286C83.0557 14.2711 76.7175 18.044 73.4591 19.073Z" fill="url(#paint5_linear_115_37)"/>
<path d="M75.3456 23.4676C75.6385 24.2179 75.2455 24.6609 74.8811 24.7967C74.531 24.9324 73.9379 24.8896 73.6378 24.125C73.2948 23.2318 73.3591 22.0742 73.7664 21.917C74.1737 21.7598 75.0026 22.5815 75.3456 23.4676Z" fill="#FADC8B"/>
<path d="M87.143 27.5406C86.4213 27.8979 85.9497 27.5406 85.7782 27.1905C85.6139 26.8546 85.6067 26.2544 86.3427 25.89C87.2002 25.4684 88.3578 25.4326 88.5507 25.8256C88.7437 26.2258 88.0005 27.119 87.143 27.5406Z" fill="#FADC8B"/>
<path d="M80.569 29.5628C80.4833 30.3631 79.9402 30.5775 79.5472 30.5346C79.1756 30.4989 78.6612 30.1845 78.7469 29.3699C78.8469 28.4195 79.4329 27.4191 79.8688 27.462C80.2975 27.5049 80.6619 28.6124 80.569 29.5628Z" fill="#FADC8B"/>
<path d="M90.3014 21.8312C89.9298 22.5458 89.3439 22.5386 88.9937 22.36C88.665 22.1885 88.3006 21.7097 88.6793 20.9809C89.1224 20.1306 90.037 19.416 90.4229 19.6161C90.8087 19.8233 90.7444 20.9809 90.3014 21.8312Z" fill="#FADC8B"/>
<path d="M112.882 22.5101C112.117 22.2671 112.017 21.6883 112.138 21.3096C112.253 20.9523 112.66 20.5164 113.439 20.7594C114.346 21.0452 115.211 21.8241 115.082 22.2385C114.947 22.6673 113.796 22.7959 112.882 22.5101Z" fill="#FADC8B"/>
<path d="M101.963 20.4807C102.499 21.0809 102.285 21.6311 101.992 21.8884C101.713 22.1385 101.134 22.3028 100.591 21.6883C99.9552 20.9738 99.6122 19.8662 99.9409 19.5732C100.262 19.2874 101.327 19.7661 101.963 20.4807Z" fill="#FADC8B"/>
<path d="M118.527 26.6188C118.177 25.8971 118.527 25.4255 118.877 25.254C119.213 25.0896 119.813 25.0825 120.17 25.8185C120.592 26.676 120.62 27.8407 120.227 28.0265C119.841 28.2194 118.948 27.4763 118.527 26.6188Z" fill="#FADC8B"/>
<path d="M114.304 34.2575C113.518 34.4147 113.146 33.9502 113.075 33.5715C113.003 33.2071 113.146 32.6211 113.953 32.4639C114.89 32.2782 116.019 32.5425 116.104 32.9713C116.19 33.3929 115.24 34.0717 114.304 34.2575Z" fill="#FADC8B"/>
<path d="M105.815 28.0765C106.615 28.0479 106.908 28.5624 106.922 28.9483C106.936 29.3199 106.701 29.8701 105.879 29.9058C104.921 29.9415 103.85 29.5056 103.835 29.0698C103.821 28.6339 104.864 28.1194 105.815 28.0765Z" fill="#FADC8B"/>
<path d="M96.9826 31.4135C96.7253 32.171 96.1394 32.2639 95.7678 32.1352C95.4105 32.0138 94.9818 31.5993 95.2462 30.8205C95.5534 29.913 96.3466 29.0698 96.761 29.2127C97.1826 29.3484 97.2898 30.506 96.9826 31.4135Z" fill="#FADC8B"/>
<path opacity="0.2" d="M92.6023 17.2294C93.7956 17.2294 95.0318 17.2723 96.2894 17.3509C104.157 17.8583 125.058 19.1945 130.553 32.2782C132.797 37.6231 133.461 40.9244 132.575 42.375C132.018 43.2896 132.189 44.4758 132.982 45.1903C133.182 45.369 133.39 45.5548 133.611 45.7406C134.676 46.6623 135.683 47.527 135.926 48.7703C136.326 50.7854 135.876 52.5932 134.776 53.4221C134.762 53.4293 134.74 53.4436 134.726 53.4507C133.897 53.9652 133.49 54.9584 133.733 55.9017C133.954 56.7663 134.026 57.4951 134.026 57.9167C133.64 58.3169 133.411 58.8457 133.397 59.4102C133.382 60.0819 133.661 60.7178 134.169 61.1537C134.447 61.3895 134.59 61.5467 134.654 61.6253C135.105 63.1402 135.147 64.4193 134.754 65.1553C134.261 66.0914 134.133 66.1842 133.661 66.5201C133.518 66.6201 133.368 66.7273 133.204 66.8559C133.032 66.9846 132.754 67.0846 132.232 67.2704L131.903 67.3847C131.139 67.6562 130.581 68.3279 130.453 69.1283C130.324 69.9286 130.639 70.7432 131.282 71.2434C131.303 71.2648 131.325 71.2791 131.346 71.2934C131.067 73.1298 130.467 76.8741 126.323 80.3969C120.72 85.1631 110.931 87.6355 97.2327 87.7355H96.4752C87.1788 87.7355 74.6024 86.3993 67.4425 80.0468C63.3409 76.4025 62.9693 72.8368 62.9622 72.7154C62.955 72.6225 62.9407 72.5296 62.9264 72.4367C62.8693 72.1294 62.8407 71.8436 62.8407 71.5864C62.855 70.8003 62.4548 70.0643 61.7903 69.6499C61.3187 69.3569 60.7613 69.0925 60.0896 68.8496C59.0464 68.4709 59.0464 68.4709 58.8177 67.2704C58.7177 66.7559 58.5962 66.1199 58.3675 65.3982C58.2818 65.1338 58.2389 64.9552 58.2103 64.8337C58.4461 64.2906 58.6105 63.6047 58.4461 62.5114C58.4318 62.2899 58.6819 61.4252 59.5537 60.1962C60.011 59.5531 60.0825 58.7313 59.7824 58.0311C60.0753 57.8024 60.5255 57.4951 61.1758 57.1093C61.8046 56.7377 62.2119 56.0803 62.269 55.3515C62.3191 54.6941 62.069 54.0509 61.6045 53.5936C61.6188 53.5508 61.6259 53.5079 61.6402 53.465C61.8332 52.7933 62.1904 51.5357 61.4401 50.278C60.8613 49.3134 59.8324 48.7346 58.6819 48.7346C58.4247 48.7346 58.1674 48.7632 57.9173 48.8203C57.7316 48.6488 57.51 48.5059 57.2671 48.413C57.0384 48.3201 56.8026 48.263 56.5668 48.2487C56.7169 47.7628 56.6954 47.3269 56.6383 47.0268C57.6887 46.9339 58.3961 46.448 58.8248 46.0335C59.668 45.2046 59.718 43.8684 58.9535 42.9823C59.225 42.8752 59.4751 42.7108 59.6823 42.4964C60.2968 41.8819 60.4969 40.9744 60.2039 40.1598C59.7681 38.9665 59.7824 37.323 60.2397 35.1364C61.5759 28.7482 68.3643 23.0317 74.1594 21.2024C74.7882 21.0023 75.4742 20.7308 76.2602 20.4235C79.44 19.1516 84.2848 17.2294 92.6023 17.2294ZM92.6023 15C81.8124 15 76.3888 18.1441 73.4591 19.0659C67.0995 21.0738 59.5751 27.2977 58.0317 34.6648C57.4886 37.2587 57.4886 39.2666 58.0817 40.903C57.8459 40.8172 57.6101 40.76 57.3671 40.76C57.017 40.76 56.6669 40.8744 56.3096 41.1745C55.5521 41.8105 55.6593 42.7823 55.9309 43.4968C55.9952 43.6755 56.7169 44.4758 57.0956 44.4758C57.1456 44.4758 57.1956 44.4615 57.2314 44.4258C56.9527 44.7044 56.6097 44.8045 56.2453 44.8045C55.6307 44.8045 54.9376 44.5329 54.3231 44.3329C54.123 44.2686 53.9158 44.24 53.7157 44.24C52.9154 44.24 52.1651 44.7259 52.2723 45.5619C52.3652 46.2622 52.8511 46.448 53.4728 46.7409C54.0944 47.0268 54.7089 47.2626 54.2802 47.8199C53.8372 48.3987 53.287 47.8843 52.5367 48.5059C51.1218 49.6921 52.8582 51.8501 53.8157 51.8501H53.8372C55.2877 51.8501 55.6022 50.9998 56.3953 50.4638L56.4168 50.5782C56.5168 51.0712 56.9384 51.3785 57.3886 51.3785C57.5815 51.3785 57.7744 51.3213 57.9531 51.1998L58.0031 51.1641C58.196 51.0283 58.4247 50.964 58.6533 50.964C58.9892 50.964 59.3179 51.1141 59.5037 51.4213C59.8895 52.0645 59.3822 52.8576 59.3107 53.6079C59.2536 54.2224 59.5608 54.8155 60.0253 55.1871C58.6533 55.9946 56.7955 57.2808 57.2099 58.1097C57.4029 58.4955 57.5672 58.7385 57.7101 58.91C57.1456 59.7103 56.0237 61.4967 56.2167 62.8258C56.4739 64.5836 55.4449 63.6404 56.2167 66.0771C56.9884 68.5137 56.3453 69.8714 59.3036 70.9504C59.8752 71.1576 60.2826 71.3577 60.597 71.5506C60.5898 71.9651 60.6327 72.401 60.7184 72.8726C60.7184 72.8726 61.8617 89.9792 96.4609 89.9792H97.2327C132.589 89.722 133.104 73.7801 133.618 71.079C133.704 70.6145 133.368 70.0715 132.632 69.4998C133.418 69.214 133.997 69.0496 134.519 68.6566C135.419 67.9778 135.812 67.9063 136.705 66.22C137.456 64.7908 137.348 62.8329 136.705 60.8036C136.591 60.4534 136.191 59.9961 135.605 59.4888C135.933 59.2315 136.134 58.9386 136.191 58.5813C136.312 57.8096 136.169 56.5448 135.869 55.3657C135.898 55.3514 135.926 55.3372 135.948 55.3229C137.827 54.0224 138.692 51.3713 138.091 48.3559C137.627 46.0264 135.755 44.733 134.454 43.5611C135.698 41.5318 135.419 38.1876 132.589 31.4421C126.758 17.5581 106.379 15.7932 96.4181 15.1572C95.0818 15.0429 93.8099 15 92.6023 15Z" fill="#424242"/>
<defs>
<linearGradient id="paint0_linear_115_37" x1="97.1233" y1="70.7717" x2="97.1233" y2="89.2933" gradientUnits="userSpaceOnUse">
<stop stop-color="#FFC044"/>
<stop offset="0.8473" stop-color="#CA4300"/>
</linearGradient>
<radialGradient id="paint1_radial_115_37" cx="0" cy="0" r="1" gradientUnits="userSpaceOnUse" gradientTransform="translate(96.5881 65.1364) scale(40.7645 15.4986)">
<stop stop-color="#583223"/>
<stop offset="0.1013" stop-color="#7B3915"/>
<stop offset="0.225" stop-color="#A04106"/>
<stop offset="0.2906" stop-color="#AE4400"/>
<stop offset="0.3208" stop-color="#A84302"/>
<stop offset="0.7241" stop-color="#623A15"/>
<stop offset="0.9458" stop-color="#603813"/>
</radialGradient>
<linearGradient id="paint2_linear_115_37" x1="96.7025" y1="52.2431" x2="96.7025" y2="74.2645" gradientUnits="userSpaceOnUse">
<stop offset="0.0049261" stop-color="#FBC02D"/>
<stop offset="0.0811" stop-color="#FCCA30"/>
<stop offset="0.2088" stop-color="#FDD534"/>
<stop offset="0.3596" stop-color="#FDD835"/>
<stop offset="0.6897" stop-color="#FFF59D"/>
<stop offset="1" stop-color="#FDD835"/>
</linearGradient>
<linearGradient id="paint3_linear_115_37" x1="70.236" y1="55.2279" x2="128.623" y2="54.1242" gradientUnits="userSpaceOnUse">
<stop stop-color="#FF3D2A"/>
<stop offset="0.0408" stop-color="#F63424"/>
<stop offset="0.1741" stop-color="#DD1D14"/>
<stop offset="0.3141" stop-color="#CC0D09"/>
<stop offset="0.4638" stop-color="#C10302"/>
<stop offset="0.6404" stop-color="#BE0000"/>
<stop offset="0.9902" stop-color="#FF1500"/>
</linearGradient>
<linearGradient id="paint4_linear_115_37" x1="95.1483" y1="49.0147" x2="95.1483" y2="61.5667" gradientUnits="userSpaceOnUse">
<stop stop-color="#518F00"/>
<stop offset="0.1974" stop-color="#619E15"/>
<stop offset="0.404" stop-color="#6FAA27"/>
<stop offset="0.4245" stop-color="#72AD2B"/>
<stop offset="0.5468" stop-color="#80B93C"/>
<stop offset="0.6779" stop-color="#88C147"/>
<stop offset="0.8325" stop-color="#8BC34A"/>
<stop offset="1" stop-color="#8CC63F"/>
</linearGradient>
<linearGradient id="paint5_linear_115_37" x1="72.9782" y1="18.5299" x2="122.693" y2="55.5387" gradientUnits="userSpaceOnUse">
<stop stop-color="#FFC044"/>
<stop offset="0.8473" stop-color="#CA4300"/>
</linearGradient>
</defs>
</svg>
